<svg width="51" height="51" viewBox="0 0 51 51" fill="none" xmlns="http://www.w3.org/2000/svg">
<path d="M9.43343 0.0775722C7.12707 0.586448 5.40346 2.81073 5.03412 5.75729C4.87817 7.0541 5.27214 8.47403 5.90413 8.89262C6.16677 9.06498 6.19961 9.13064 6.42942 10.0991C6.56074 10.6655 7.32406 13.965 8.12841 17.445C8.92455 20.9169 9.60579 23.7896 9.63862 23.8306C9.68787 23.8798 11.0011 23.6172 11.0832 23.5433C11.0996 23.5269 10.3937 20.4572 9.51551 16.7227C8.64549 12.9882 7.9068 9.82009 7.87397 9.68056L7.81652 9.42612L8.16945 9.48357C11.4443 10.0007 15.2116 11.2236 18.626 12.8815C25.9391 16.4355 32.7186 22.386 37.356 29.3297C37.7417 29.9043 38.0454 30.3885 38.029 30.4049C38.0126 30.4214 35.5585 30.8564 32.5791 31.357C29.5997 31.8659 27.1292 32.3091 27.0881 32.3502C27.0143 32.4158 27.1948 33.8193 27.2851 33.8193C27.318 33.8193 30.0183 33.3597 33.2849 32.7934C38.1521 31.948 39.3176 31.7674 39.7198 31.8085C40.9427 31.9234 42.5924 31.1026 44.2176 29.5513C44.628 29.1656 45.1368 28.5993 45.3584 28.2874C46.015 27.3517 46.1135 26.7443 45.8755 25.1602C45.3584 21.7458 43.1588 17.9949 39.3504 14.0881C32.8171 7.3742 23.3537 2.031 15.2855 0.504371C13.291 0.126818 10.246 -0.094789 9.43343 0.0775722ZM13.2582 1.84222C23.6655 3.22932 36.4203 11.3303 42.0179 20.1125C43.405 22.2875 44.3571 24.8566 44.3571 26.3832C44.3571 27.3024 42.6335 29.0917 41.033 29.8468C40.4174 30.1341 39.8429 30.2818 39.8429 30.1423C39.8429 30.1013 39.4325 29.4446 38.9318 28.6813C31.9881 18.1509 21.0965 10.4521 9.84381 8.1293C9.15437 7.98157 7.09424 7.63684 6.91367 7.63684C6.78235 7.63684 6.65103 6.96381 6.65924 6.32362C6.67565 4.26349 7.9068 2.28544 9.49909 1.76015C9.92589 1.61241 11.8547 1.66165 13.2582 1.84222Z" fill="white"/>
<path d="M10.9108 24.2475C10.7795 24.2967 10.5087 24.4445 10.3199 24.5676C9.73714 24.9697 9.60582 25.3719 9.31034 27.629C9.1626 28.7124 9.06411 29.7548 9.08873 29.9518C9.11335 30.2227 9.32675 30.6248 9.95054 31.618L10.7795 32.9312L10.2296 34.2198L9.67968 35.5166V36.3374C9.67968 37.0843 9.70431 37.2074 9.93412 37.6916C10.0737 37.9871 10.3527 38.3811 10.5497 38.5699C10.9519 38.9556 12.2159 39.801 12.9381 40.1704C14.1529 40.7859 15.6631 40.6136 16.7219 39.7436C16.886 39.5958 17.3621 39.0459 17.7642 38.5206L18.5029 37.5521L19.373 37.5029C19.8572 37.47 20.5549 37.4454 20.9242 37.4454C21.5234 37.4454 21.6629 37.4126 22.1225 37.1746C22.8858 36.7888 25.6764 34.704 25.8816 34.3757C26.1115 34.0064 26.2099 33.4237 26.1279 32.9476C25.9309 31.9052 24.79 31.1747 23.7805 31.4456C23.5671 31.5031 22.9105 31.9134 22.0979 32.5044C20.7683 33.4565 20.7601 33.4647 20.1855 33.5221C19.2088 33.6206 18.5111 33.596 18.2567 33.4647C17.912 33.2841 17.953 33.2103 18.4127 33.1446C19.3647 33.0215 20.4728 32.1843 20.957 31.224C22.0733 29.0079 20.7272 26.365 18.2649 25.9382C15.5564 25.4786 13.2336 28.261 14.2349 30.789C14.3252 31.0188 14.3663 31.2076 14.3252 31.2076C14.2842 31.2076 13.9805 30.7808 13.6522 30.2473L13.053 29.2952L13.2746 27.7275C13.3978 26.8657 13.4963 26.086 13.4963 25.9957C13.488 25.3801 12.9299 24.5922 12.3061 24.3049C11.945 24.1408 11.2966 24.1161 10.9108 24.2475ZM11.7644 25.8644C11.8711 25.93 11.8465 26.2009 11.6167 27.7521C11.469 28.7535 11.3705 29.6317 11.4033 29.7138C11.4279 29.7877 11.8219 30.4278 12.2651 31.1255L13.0777 32.3977L15.5564 33.8176L18.0433 35.2293L18.8641 35.2211C19.3237 35.2129 20.0624 35.1883 20.5138 35.1555L21.3346 35.1062L22.6889 34.1131C23.4358 33.5714 24.0842 33.1036 24.1416 33.0707C24.3058 32.964 24.4945 33.1036 24.4863 33.3334C24.4863 33.5139 24.2647 33.7027 22.9351 34.663L21.3838 35.7793L19.652 35.8367C18.6999 35.8695 17.8217 35.9352 17.715 35.9844C17.6083 36.0337 17.124 36.6082 16.648 37.2566C15.7123 38.5206 15.3922 38.7997 14.7192 38.89C14.1857 38.9638 13.8081 38.8243 12.7658 38.1595C11.6003 37.4208 11.3458 37.1253 11.2966 36.4687C11.2638 36.0255 11.3048 35.8942 11.8876 34.4989C12.2323 33.6781 12.5113 32.923 12.5113 32.8163C12.5113 32.7178 12.1009 31.9873 11.5921 31.1994L10.681 29.7712L10.9437 27.8424C11.0996 26.7836 11.2309 25.889 11.2556 25.848C11.3048 25.7659 11.6249 25.7741 11.7644 25.8644ZM18.7328 27.8178C20.0214 28.614 20.0542 30.4853 18.782 31.2897C17.8053 31.9052 16.5413 31.6015 15.9175 30.6002C15.7041 30.2391 15.6713 30.1242 15.6713 29.5743C15.6713 29.0408 15.7041 28.893 15.9011 28.5647C16.3279 27.8342 16.9845 27.4895 17.8299 27.547C18.2157 27.5716 18.4455 27.6372 18.7328 27.8178Z" fill="white"/>
<path d="M13.9076 2.50496C13.8416 2.49671 13.763 2.42797 13.6869 2.41106C13.4739 2.36371 13.2806 2.33594 13.0625 2.33594C12.8841 2.33594 12.7057 2.33594 12.5272 2.33594C11.8864 2.33594 11.1894 2.3762 10.5835 2.60825C10.2123 2.75042 9.79735 2.80604 9.44969 2.99323C9.21121 3.12165 9.02792 3.34301 8.80413 3.4956C8.66393 3.59119 8.53656 3.81404 8.46609 3.9604C8.3985 4.10078 8.3686 4.269 8.31116 4.41581C8.21995 4.6489 8.07641 4.87047 8.07641 5.12476C8.07641 5.2558 8.05669 5.50411 8.15153 5.59895C8.21636 5.66378 8.24543 5.89792 8.24543 5.99098C8.24543 6.02527 8.28263 6.11793 8.30881 6.13887C8.39467 6.20756 8.24219 6.24211 8.21256 6.27503C8.15758 6.33612 8.39256 6.52701 8.43557 6.56142C8.64288 6.72726 9.10447 6.71563 9.36048 6.768C9.60192 6.81738 9.86827 6.93324 10.114 6.94171C10.5318 6.95612 10.9988 7.0865 11.3112 7.36426C11.657 7.67163 12.2368 7.7314 12.6305 7.9793C12.9615 8.18768 13.4647 8.21188 13.8442 8.29621C14.031 8.33772 14.2477 8.42613 14.4146 8.51453C14.8169 8.72751 15.2873 8.85701 15.7104 9.04037C16.545 9.40202 17.4737 9.5344 18.2504 10.0263C18.5277 10.2019 18.8023 10.3704 19.1049 10.5005C19.1878 10.5361 19.5603 10.6355 19.612 10.7259C19.6751 10.8363 19.9395 10.893 20.0439 10.9888C20.2794 11.2047 20.5391 11.4327 20.8139 11.5897C20.9351 11.659 21.0903 11.7814 21.1754 11.8949C21.3665 12.1497 21.7265 12.3225 21.997 12.4771C22.4442 12.7326 22.6914 12.1716 22.8891 11.8949C23.0764 11.6326 23.3406 11.4064 23.5628 11.1672C23.6674 11.0546 23.7981 10.9689 23.8985 10.8503C23.9461 10.794 23.995 10.687 24.0487 10.6601" stroke="white" stroke-width="3" stroke-linecap="round"/>
<path d="M15.6825 4.15269C15.5426 4.1387 15.4171 4.05226 15.274 4.03531C15.0144 4.00457 14.7336 4.02027 14.4735 4.02827C14.035 4.04177 13.6197 4.19494 13.18 4.19494C12.7956 4.19494 12.4055 4.17002 12.0298 4.26772C11.4152 4.42751 10.7801 4.57601 10.1823 4.79121C9.3754 5.08169 8.31989 5.09723 7.67753 5.73959C7.53374 5.88338 7.26857 6.3896 7.52729 6.51896" stroke="white" stroke-width="3" stroke-linecap="round"/>
<path d="M19.7388 5.92725C19.7898 5.93291 19.8183 5.96248 19.8514 6.00002C19.9865 6.15303 20.1333 6.26946 20.3069 6.37796C20.8494 6.71705 21.5164 6.87269 22.1426 6.97423C22.2858 6.99744 22.3998 7.04651 22.5276 7.11038" stroke="white" stroke-width="3" stroke-linecap="round"/>
<path d="M16.3585 6.4766C16.3924 6.48036 16.6737 6.55833 16.6684 6.55172C16.4582 6.28893 16.0205 6.27 15.7459 6.11743C15.3964 5.92331 14.9592 5.84277 14.5627 5.84277C14.1123 5.84277 13.68 5.88503 13.2317 5.88503" stroke="white" stroke-width="3" stroke-linecap="round"/>
<path d="M28.2321 15.7727C28 15.7469 27.8036 15.5045 27.5983 15.4018C27.4474 15.3264 27.3154 15.2498 27.1757 15.16C26.6853 14.8447 26.332 14.2787 25.7907 14.0497C25.7166 14.0183 25.6616 13.9537 25.61 13.8924C25.5257 13.7923 25.4141 13.7745 25.3259 13.6928C25.2018 13.5779 25.0462 13.5329 24.9175 13.4276C24.7537 13.2935 24.6381 13.0898 24.502 12.9299C24.3122 12.7071 24.1066 12.4894 23.8846 12.2984C23.6446 12.092 23.4879 11.8384 23.2906 11.5918C23.198 11.4761 23.1567 11.3312 23.0512 11.2256C22.913 11.0874 22.7625 10.9004 22.5911 10.8242C22.3476 10.716 22.2561 10.3423 22.0254 10.2092C21.7774 10.0661 21.6064 9.79946 21.3939 9.6082C21.2996 9.52334 21.2012 9.4601 21.1098 9.36876C20.9592 9.21809 20.791 9.09406 20.6051 8.99081C20.1743 8.75146 19.7395 8.50964 19.3163 8.26075C19.2623 8.22894 19.0481 8.03865 19.0206 7.9767C18.9485 7.81453 18.698 7.72933 18.6074 7.57528C18.3507 7.13882 17.9585 6.76583 17.7294 6.30763C17.6856 6.22004 17.5819 6.11391 17.4994 6.06349C17.4378 6.02583 17.4123 5.92471 17.3538 5.86631C17.2012 5.71368 17.0454 5.48942 16.936 5.30291C16.7993 5.06992 16.6888 4.8109 16.5463 4.58458C16.4426 4.41983 16.3924 4.20845 16.2083 4.10804C15.9119 3.94638 15.7247 3.82094 15.7247 3.47421C15.7247 3.42361 15.6991 3.26529 15.7247 3.26529C16.1318 3.26529 16.6064 3.41966 16.9994 3.52586C17.5472 3.67391 18.1006 3.82008 18.6309 4.01648C18.7929 4.0765 18.9139 4.22426 19.0581 4.31696C19.2714 4.45405 19.3434 4.41875 19.1168 4.26766C18.7629 4.03175 18.4399 3.77977 18.044 3.60802C17.7044 3.4607 17.342 3.34908 16.997 3.20895C16.7761 3.11919 16.4973 3.08446 16.2646 3.03523C16.0784 2.99584 15.8127 3.03679 15.6402 2.96011C15.596 2.94049 15.4437 2.91934 15.5533 2.99767C15.8326 3.19718 16.2308 3.26029 16.551 3.35919C16.9992 3.49761 17.4406 3.65869 17.882 3.81695C18.7567 4.13051 19.5308 4.64016 20.3586 5.05407C20.8123 5.28092 21.3157 5.56676 21.7953 5.73015C22.023 5.80773 22.2279 5.92864 22.4526 6.01654C22.8362 6.16665 23.142 6.4486 23.5465 6.55412C23.82 6.62545 24.1296 6.9919 24.3447 7.19498C24.9265 7.74444 25.7028 8.04295 26.4292 8.33352C26.8521 8.50264 27.3031 8.59103 27.7274 8.76076C27.9587 8.85328 28.288 8.96613 28.4763 9.12932C28.5613 9.203 28.6688 9.2758 28.772 9.31712C28.897 9.3671 29.0097 9.49491 29.1265 9.5636C29.4621 9.76103 29.7288 10.0196 30.0397 10.2467C30.5249 10.6013 31.0021 11.1357 31.359 11.6224C31.571 11.9114 31.8409 12.1357 31.8989 12.5097C31.931 12.7168 31.7851 12.8404 31.6266 12.9604C31.4555 13.09 31.2618 13.108 31.0538 13.1107C30.7352 13.1147 30.389 13.1444 30.0843 13.0332C29.2609 12.7328 28.5794 12.307 27.88 11.7843C27.5613 11.5462 27.2029 11.3339 26.9175 11.0543C26.7212 10.8618 26.5277 10.641 26.2884 10.5003C25.9627 10.3087 25.551 10.193 25.1992 10.0354C24.6125 9.77268 24.1177 9.40785 23.5465 9.12227C23.325 9.01152 23.2085 8.98514 23.1287 8.72555C23.0511 8.47345 23.1576 8.3672 23.3728 8.29126C23.7542 8.15666 24.2386 8.15032 24.5794 7.95557C24.7259 7.87187 24.7387 7.6553 24.8517 7.58467C25.132 7.40951 25.3849 7.37215 25.718 7.44617C26.1458 7.54123 26.657 7.73128 26.9879 8.04478C27.2258 8.27007 27.5295 8.38425 27.8049 8.54949C28.1425 8.75207 28.4752 8.95122 28.8213 9.14105C29.2655 9.38461 29.7284 9.58997 30.1383 9.8899C30.5286 10.1755 30.8554 10.5167 31.2181 10.8289C31.3555 10.9471 31.5878 11.1146 31.7627 11.1646C31.8722 11.1959 31.9275 11.1702 32.0327 11.2491C32.4592 11.569 32.7395 12.0573 33.1806 12.3759C33.57 12.6571 33.9773 12.8713 34.3685 13.1529C34.8607 13.5073 35.2637 13.9121 35.6784 14.3267C35.8928 14.5411 36.1113 14.7314 36.3263 14.9464C36.6906 15.3108 37.085 15.64 37.4038 16.0544C37.6067 16.3182 37.8353 16.5634 38.0681 16.7962C38.4115 17.1397 38.763 17.4724 39.1127 17.8221C39.2871 17.9965 39.4437 18.1816 39.655 18.3268C39.8426 18.4556 39.9826 18.5692 40.1433 18.7188C40.3232 18.8863 40.6138 19.0019 40.7607 19.1977C41.0582 19.5944 41.4359 19.9324 41.7114 20.3456C41.8477 20.55 41.9842 20.749 42.0917 20.9701C42.189 21.1701 42.2507 21.4018 42.3264 21.6109C42.429 21.894 42.594 22.2043 42.6434 22.5006C42.7028 22.8575 42.837 23.2512 42.9579 23.5899C43.017 23.7552 42.995 24.064 43.0964 24.1908C43.1305 24.2334 43.1837 24.3867 43.2091 24.442C43.2957 24.631 43.3355 24.8842 43.4626 25.0476C43.5414 25.1489 43.7396 25.5064 43.7396 25.6181C43.7396 25.9659 43.4818 26.2553 43.3382 26.5712C43.2225 26.8257 43.3448 27.1237 43.2138 27.367C43.1304 27.5218 43.0007 27.5819 42.8476 27.6745C42.5714 27.8415 42.3029 28.023 42.026 28.1862C41.7389 28.3554 41.4164 29.083 41.0142 29.083C40.8884 29.083 40.724 29.0553 40.6034 29.0924C40.3786 29.1615 40.3163 28.8793 40.2724 28.6816C40.1367 28.071 39.8242 27.882 39.2653 27.7496C38.9919 27.6849 38.7531 27.5689 38.5188 27.435C38.3672 27.3484 38.2865 27.137 38.162 27.0125C37.9957 26.8462 37.8691 26.6631 37.7042 26.4937C37.5964 26.3828 37.4415 26.245 37.3685 26.1064C37.285 25.9476 37.1962 25.7311 37.0845 25.5946C36.971 25.4559 36.853 25.2715 36.777 25.111C36.443 24.4059 35.8549 23.7831 35.4178 23.1274C35.2791 22.9194 35.105 22.6503 34.9272 22.4724C34.7964 22.3417 34.6513 22.2627 34.5375 22.1109C34.4515 21.9963 34.3064 21.9683 34.2323 21.8386C34.1582 21.7089 33.992 21.6228 33.8943 21.51C33.747 21.3401 33.5772 21.1841 33.4107 21.0334C33.2282 20.8683 33.0363 20.6895 32.8238 20.5639C32.4452 20.3402 32.1718 19.9966 31.8426 19.7071C31.5357 19.4373 31.2398 19.1944 30.9693 18.8878C30.87 18.7753 30.7833 18.6538 30.6805 18.5428C30.59 18.4449 30.4071 18.3229 30.3542 18.1906C30.2981 18.0502 30.1385 17.8749 30.035 17.7634C29.8448 17.5585 29.6803 17.3302 29.5138 17.1061C29.2636 16.7692 29.0601 16.4134 28.8871 16.0309C28.6843 15.5828 28.3904 15.1797 28.2298 14.714C28.1049 14.352 27.9353 13.8326 27.6593 13.5567C27.5788 13.4761 27.6139 13.5406 27.7485 13.5849C28.3751 13.7911 29.0295 13.8981 29.65 14.1201C30.3177 14.3589 30.9558 14.5068 31.6524 14.6318C32.0446 14.7022 32.4644 14.7046 32.8426 14.8384C33.1897 14.9612 33.5414 15.136 33.8191 15.3807C34.2958 15.8006 34.7861 16.2029 35.2464 16.6413C36.0163 17.3745 36.5037 18.4163 37.0634 19.2986C37.2689 19.6227 37.3575 19.9945 37.5681 20.3104C37.5909 20.3446 37.6227 20.3228 37.5939 20.294C37.4001 20.1002 37.1361 19.9495 36.9155 19.7916C35.7289 18.9426 34.5539 18.0831 33.3074 17.3221C32.4182 16.7791 31.531 16.2287 30.6594 15.6577C30.3208 15.4359 30.0133 15.2164 29.7016 14.9511C29.3968 14.6916 29.0936 14.3217 28.7368 14.1271C28.6462 14.0777 28.54 14.0529 28.4528 13.998C28.2188 13.8507 27.8764 13.7716 27.6875 13.559C27.6583 13.5262 27.9377 13.784 27.9974 13.829C28.6832 14.346 29.3533 14.9056 29.981 15.491C31.0604 16.4977 32.2969 17.3219 33.3778 18.3268C33.7361 18.6598 34.1335 18.9712 34.4577 19.3386C34.5772 19.474 34.7532 19.6199 34.845 19.7728C34.9737 19.9874 35.0812 20.1402 35.2464 20.3362C35.4809 20.6145 35.7574 20.8438 36.0305 21.0827C36.2556 21.2797 36.4368 21.5138 36.6596 21.7119C37.0628 22.0702 37.4464 22.4152 37.8615 22.7401C38.04 22.8797 38.3164 22.9842 38.4273 23.1743C38.5309 23.352 38.7602 23.5797 38.9132 23.7284C39.4863 24.2851 39.8225 25.0642 40.4438 25.5524C40.4751 25.577 40.73 25.7497 40.7607 25.719C40.7972 25.6825 40.7764 25.616 40.7701 25.5758C40.7002 25.1356 40.6086 24.6995 40.5283 24.2612C40.4342 23.7481 40.3373 23.2727 40.1855 22.7729C40.0579 22.3524 40.008 21.9077 39.8944 21.4818C39.8158 21.1871 39.6595 20.9272 39.601 20.625C39.5631 20.429 39.3043 20.2524 39.1339 20.1672" stroke="white" stroke-width="3" stroke-linecap="round"/>
<path d="M26.1193 12.519C26.0624 12.519 26.059 12.5165 26.0254 12.4767C25.8032 12.2142 25.4651 12.0073 25.2037 11.7819C25.1496 11.7351 24.8671 11.5317 24.8939 11.5049" stroke="black" stroke-width="3" stroke-linecap="round"/>
<path d="M26.077 12.4346C26.0618 12.5565 25.867 12.2711 25.847 12.2492C25.5293 11.9012 25.1098 11.6508 24.7671 11.329C24.6076 11.1791 24.4997 10.999 24.3023 10.8806C24.1704 10.8014 24.0361 10.7242 23.9056 10.6412C23.8302 10.5931 23.7637 10.55 23.6826 10.5144C23.6328 10.4925 23.5417 10.3779 23.5417 10.4322C23.5417 10.7639 23.6851 11.1004 23.7718 11.4158C23.8541 11.7151 24.0798 11.9258 24.1803 12.2187C24.2905 12.5403 24.4226 13.0649 24.7671 13.2281C24.867 13.2754 24.9561 13.2749 25.0629 13.2797C25.3196 13.2914 25.5557 13.4336 25.8047 13.4816C26.1333 13.545 26.3567 13.7484 26.6921 13.6366C26.8487 13.5843 26.8799 13.5292 26.8799 13.3736C26.8799 12.8985 26.8224 12.4721 26.7602 12.0051C26.6483 11.166 26.6733 10.2415 26.3939 9.43455C26.2883 9.12947 26.2719 8.83372 26.1287 8.5472C26.0887 8.46731 26.0222 8.43767 25.9737 8.36879C25.8969 8.25965 25.8231 8.10078 25.7296 8.00728C25.4637 7.74133 25.4207 7.29238 25.2742 6.96264C25.1578 6.7008 24.6608 6.68799 24.4291 6.68799" stroke="white" stroke-width="3" stroke-linecap="round"/>
</svg>
