<svg width="42" height="40" viewBox="0 0 42 40" fill="none" xmlns="http://www.w3.org/2000/svg">
<g clip-path="url(#clip0_242_15)">
<path d="M23.8883 -0.0199942C21.2046 0.540666 19.4558 3.2131 20.0165 5.89682C20.5771 8.58055 23.2496 10.3293 25.9333 9.76868C28.617 9.20802 30.3658 6.53559 29.8051 3.85186C29.2445 1.16813 26.5721 -0.580654 23.8883 -0.0199942ZM7.20272 5.43407L4.88447 7.83386L9.8192 12.6039C10.402 13.1682 11.1714 13.4993 11.9819 13.5346L15.7418 13.7077L11.5965 19.84C11.1428 20.5224 10.9312 21.3374 10.9957 22.1544C11.0602 22.9713 11.397 23.743 11.9521 24.3458L14.9328 27.6597L13.7648 29.7136L11.3371 33.9121L15.1857 33.9151L16.6697 31.3934L18.4619 28.2522L19.0464 27.2277L18.2718 26.3236L14.4158 22.1285C14.3648 22.0723 14.3337 22.0008 14.3275 21.9252C14.3212 21.8495 14.3401 21.7739 14.3811 21.7101L19.5753 13.9727L21.3721 14.9288L18.1065 20.186C17.6603 20.9094 17.5038 21.7746 17.6682 22.6084C17.8326 23.4422 18.3059 24.1832 18.9932 24.6831L22.067 26.9184L22.3713 29.1415L22.9768 33.9305L26.3489 33.9344L25.6877 28.716L25.2731 25.7123L25.1876 25.0423L24.6096 24.5739L20.9317 21.9897L24.357 16.4863L32.7407 20.9598L34.2982 17.9748L20.5485 10.7336L20.2392 10.5326L19.873 10.5563L12.1374 10.2041L7.20272 5.43407V5.43407ZM24.57 3.2429C25.4885 3.05101 26.3507 3.61664 26.5423 4.53352C26.7338 5.45039 26.1685 6.31424 25.2516 6.50579C24.3348 6.69733 23.4709 6.13204 23.2794 5.21517C23.0878 4.2983 23.6531 3.43444 24.57 3.2429ZM3.59642 34.1058L0.980836 36.1744L1.29773 36.5747C2.07389 37.5614 3.06428 38.3586 4.19396 38.906C5.32365 39.4535 6.56305 39.7369 7.8184 39.7347L34.6367 39.7747C36.5185 39.7802 38.3463 39.1456 39.8198 37.975L40.9189 37.1069L38.8503 34.4913L37.7512 35.3594C36.867 36.0627 35.77 36.4444 34.6402 36.4418L7.82519 36.4012C7.07178 36.4009 6.32824 36.2298 5.6505 35.9007C4.97276 35.5716 4.37846 35.0931 3.9123 34.5012L3.59806 34.1054L3.59642 34.1058Z" fill="white"/>
</g>
<defs>
<clipPath id="clip0_242_15">
<rect width="41.6667" height="40" fill="white"/>
</clipPath>
</defs>
</svg>
