<svg width="47" height="41" viewBox="0 0 47 41" fill="none" xmlns="http://www.w3.org/2000/svg">
<path d="M30.2439 7.92988C29.1707 7.92988 28.2524 7.54744 27.4888 6.78256C26.7239 6.01898 26.3415 5.10061 26.3415 4.02744C26.3415 2.95427 26.7239 2.03524 27.4888 1.27037C28.2524 0.506788 29.1707 0.125 30.2439 0.125C31.3171 0.125 32.2361 0.506788 33.001 1.27037C33.7646 2.03524 34.1463 2.95427 34.1463 4.02744C34.1463 5.10061 33.7646 6.01898 33.001 6.78256C32.2361 7.54744 31.3171 7.92988 30.2439 7.92988ZM23.4146 34.2713C22.8618 34.2713 22.3987 34.084 22.0254 33.7094C21.6507 33.3361 21.4634 32.873 21.4634 32.3201V24.5152L15.2195 19.0518C14.7642 18.6616 14.4553 18.2551 14.2927 17.8323C14.1301 17.4096 14.0488 16.9055 14.0488 16.3201C14.0488 15.7348 14.1385 15.2385 14.318 14.8313C14.4963 14.4255 14.7967 14.0112 15.2195 13.5884L20.6829 8.125C21.1057 7.70224 21.5532 7.4011 22.0254 7.22159C22.4963 7.04337 23.0244 6.95427 23.6098 6.95427C24.1951 6.95427 24.7239 7.04337 25.1961 7.22159C25.667 7.4011 26.1138 7.70224 26.5366 8.125L30.2439 11.8323C30.9593 12.5478 31.7476 13.1494 32.6088 13.6372C33.4712 14.125 34.439 14.4502 35.5122 14.6128C36.0325 14.7104 36.4553 14.938 36.7805 15.2957C37.1057 15.6535 37.2683 16.0762 37.2683 16.564C37.2683 17.1819 37.0569 17.6782 36.6341 18.0528C36.2114 18.4261 35.7236 18.5803 35.1707 18.5152C33.6098 18.2876 32.1704 17.8323 30.8527 17.1494C29.5363 16.4665 28.3577 15.6047 27.3171 14.564L25.7561 13.003L21.0732 17.686L24.2927 21.0518C24.6504 21.4096 24.919 21.8245 25.0985 22.2967C25.2767 22.7676 25.3659 23.247 25.3659 23.7348V32.3201C25.3659 32.873 25.1792 33.3361 24.8059 33.7094C24.4312 34.084 23.9675 34.2713 23.4146 34.2713ZM9.7561 40.125C6.99187 40.125 4.67512 39.1897 2.80585 37.3191C0.935284 35.4499 0 33.1331 0 30.3689C0 27.6047 0.935284 25.2879 2.80585 23.4187C4.67512 21.5481 6.99187 20.6128 9.7561 20.6128C12.5203 20.6128 14.8371 21.5481 16.7063 23.4187C18.5769 25.2879 19.5122 27.6047 19.5122 30.3689C19.5122 33.1331 18.5769 35.4499 16.7063 37.3191C14.8371 39.1897 12.5203 40.125 9.7561 40.125ZM9.7561 37.1982C11.6098 37.1982 13.2117 36.523 14.562 35.1728C15.9109 33.8239 16.5854 32.2226 16.5854 30.3689C16.5854 28.5152 15.9109 26.9133 14.562 25.563C13.2117 24.2141 11.6098 23.5396 9.7561 23.5396C7.90244 23.5396 6.30114 24.2141 4.9522 25.563C3.60195 26.9133 2.92683 28.5152 2.92683 30.3689C2.92683 32.2226 3.60195 33.8239 4.9522 35.1728C6.30114 36.523 7.90244 37.1982 9.7561 37.1982ZM37.0732 40.125C34.3089 40.125 31.9922 39.1897 30.1229 37.3191C28.2524 35.4499 27.3171 33.1331 27.3171 30.3689C27.3171 27.6047 28.2524 25.2879 30.1229 23.4187C31.9922 21.5481 34.3089 20.6128 37.0732 20.6128C39.8374 20.6128 42.1541 21.5481 44.0234 23.4187C45.894 25.2879 46.8293 27.6047 46.8293 30.3689C46.8293 33.1331 45.894 35.4499 44.0234 37.3191C42.1541 39.1897 39.8374 40.125 37.0732 40.125ZM37.0732 37.1982C38.9268 37.1982 40.5281 36.523 41.8771 35.1728C43.2273 33.8239 43.9024 32.2226 43.9024 30.3689C43.9024 28.5152 43.2273 26.9133 41.8771 25.563C40.5281 24.2141 38.9268 23.5396 37.0732 23.5396C35.2195 23.5396 33.6182 24.2141 32.2693 25.563C30.919 26.9133 30.2439 28.5152 30.2439 30.3689C30.2439 32.2226 30.919 33.8239 32.2693 35.1728C33.6182 36.523 35.2195 37.1982 37.0732 37.1982Z" fill="white"/>
</svg>
