<svg width="54" height="50" viewBox="0 0 54 50" fill="none" xmlns="http://www.w3.org/2000/svg">
<path d="M29.3574 33.0018L27.5627 32.3369C27.4097 31.6602 27.0272 31.2718 27.0272 31.2718C26.7982 31.0424 26.5263 30.8604 26.2269 30.7362C25.9275 30.612 25.6065 30.5481 25.2824 30.5481C24.9583 30.5481 24.6374 30.612 24.338 30.7362C24.0386 30.8604 23.7666 31.0424 23.5377 31.2718L22.6668 32.1427L18.7653 28C18.1769 30.3538 18.7653 32.7076 20.2071 34.6024L17 37.7094C17 37.7094 22.2313 38.8863 25.2795 36.5031C26.9036 35.232 27.2684 34.4906 27.4979 33.708L29.3574 33.0018ZM26.2445 33.1313C26.015 33.3608 25.6384 33.3608 25.4089 33.1313C25.3544 33.0768 25.3111 33.0122 25.2816 32.941C25.2521 32.8698 25.2369 32.7935 25.2369 32.7164C25.2369 32.6394 25.2521 32.563 25.2816 32.4919C25.3111 32.4207 25.3544 32.356 25.4089 32.3016C25.6384 32.0721 26.015 32.0721 26.2445 32.3016C26.474 32.5311 26.474 32.9018 26.2445 33.1313Z" fill="white"/>
<path d="M18.5362 12.5027L15.844 11.5053C15.6145 10.4902 15.0408 9.90767 15.0408 9.90767C14.6973 9.56355 14.2894 9.29054 13.8403 9.10426C13.3912 8.91798 12.9098 8.8221 12.4236 8.8221C11.9375 8.8221 11.4561 8.91798 11.007 9.10426C10.5579 9.29054 10.15 9.56355 9.80651 9.90767L8.50015 11.214L2.64802 5C1.76535 8.5307 2.64802 12.0614 4.81058 14.9036L0 19.5641C0 19.5641 7.84698 21.3295 12.4192 17.7546C14.8554 15.8481 15.4027 14.7359 15.7469 13.5619L18.5362 12.5027ZM13.8668 12.6969C13.5226 13.0412 12.9577 13.0412 12.6134 12.6969C12.5316 12.6153 12.4667 12.5183 12.4224 12.4115C12.3781 12.3047 12.3553 12.1902 12.3553 12.0746C12.3553 11.959 12.3781 11.8446 12.4224 11.7378C12.4667 11.631 12.5316 11.534 12.6134 11.4523C12.9577 11.1081 13.5226 11.1081 13.8668 11.4523C14.2111 11.7966 14.2111 12.3527 13.8668 12.6969Z" fill="white"/>
<path d="M53.7149 10.0036L50.1253 8.67375C49.8193 7.32031 49.0544 6.54356 49.0544 6.54356C48.5964 6.08473 48.0525 5.72071 47.4538 5.47235C46.855 5.22398 46.2131 5.09614 45.5649 5.09614C44.9166 5.09614 44.2747 5.22398 43.676 5.47235C43.0772 5.72071 42.5333 6.08473 42.0753 6.54356L40.3335 8.28537L32.5307 0C31.3538 4.7076 32.5307 9.41519 35.4141 13.2048L29 19.4188C29 19.4188 39.4626 21.7726 45.559 17.0062C48.8072 14.4641 49.5369 12.9812 49.9959 11.4159L53.7149 10.0036ZM47.4891 10.2626C47.0301 10.7216 46.2769 10.7216 45.8179 10.2626C45.7088 10.1537 45.6222 10.0244 45.5632 9.88198C45.5041 9.73961 45.4737 9.58698 45.4737 9.43285C45.4737 9.27871 45.5041 9.12609 45.5632 8.98371C45.6222 8.84134 45.7088 8.71201 45.8179 8.60313C46.2769 8.14414 47.0301 8.14414 47.4891 8.60313C47.9481 9.06212 47.9481 9.80357 47.4891 10.2626Z" fill="white"/>
</svg>
