<svg width="290" height="182" viewBox="0 0 290 182" fill="none" xmlns="http://www.w3.org/2000/svg">
<path d="M61.2461 0.652939C59.3557 0.797531 56.9127 1.14452 55.1241 1.52042C54.3679 1.69391 53.0592 1.88187 52.2303 1.95415C46.3991 2.48909 38.4158 6.2915 31.7267 11.7421C24.5286 17.612 16.4435 27.2843 12.939 34.2096C10.3069 39.4288 9.01274 44.7927 7.86395 55.3614C6.51159 67.8819 5.46459 72.4505 2.75986 77.8288L1.78557 79.7517L2.54173 79.665C2.9489 79.6216 3.61781 79.5349 4.03952 79.4915L4.78114 79.3903L4.28672 80.7204C4.01043 81.4578 3.5451 82.8746 3.26881 83.8867C2.4254 86.9084 1.75649 88.9903 1.3057 89.9734C1.07304 90.4795 0.898536 90.9132 0.913078 90.9276C0.942161 90.9566 1.55291 90.8843 2.26544 90.7686C4.2431 90.465 4.12677 90.4361 4.01043 91.318C3.95227 91.7373 3.57419 93.2554 3.18156 94.6867C2.74532 96.2915 2.43994 97.7517 2.38178 98.4746L2.29453 99.6746H3.44331C4.46122 99.6746 5.02835 99.5734 6.52613 99.1541L6.84604 99.0674V102.017C6.84604 106.325 7.16596 109.896 7.9512 114.132C8.48924 117.038 8.41653 116.923 9.15815 115.954C9.50715 115.506 9.84161 115.173 9.89977 115.217C9.95794 115.246 10.0452 115.622 10.1034 116.041C10.4669 118.773 12.241 126.667 13.3752 130.557C14.524 134.504 17.0542 141.458 17.3305 141.458C17.5632 141.458 20.1807 134.084 21.3149 130.253L21.8239 128.518L21.7221 130.238L21.6348 131.973L22.5509 131.251C23.7724 130.296 25.183 128.778 26.0555 127.448C26.4481 126.855 26.768 126.436 26.768 126.523C26.768 127 25.9246 129.429 25.2411 130.961L24.4559 132.711L26.6662 130.47C27.8732 129.226 29.2692 127.694 29.7345 127.029C30.2144 126.378 30.6215 125.872 30.6506 125.901C30.6797 125.916 30.5634 126.32 30.4034 126.798C29.6472 128.937 27.4951 137.916 27.4951 138.826C27.4951 138.985 27.626 138.884 27.815 138.566C31.2468 133.029 35.5947 127.535 39.4192 123.92L40.7279 122.677V119.887L40.7134 117.096L40.3208 117.545C40.1026 117.805 39.3319 118.672 38.6194 119.496C37.1071 121.217 34.8822 124.152 33.239 126.566C32.6137 127.477 32.0466 128.287 31.9739 128.373C31.8139 128.547 32.7446 125.901 34.824 120.306C36.1473 116.735 37.0344 114.06 37.4415 112.34C37.5433 111.949 37.5288 111.935 37.3106 112.108C37.1798 112.224 36.1328 113.713 34.9985 115.419C30.4325 122.287 29.8217 123.212 29.0947 124.181C28.5857 124.86 28.3676 125.077 28.4112 124.831C28.6293 123.805 28.6875 122.561 28.5857 120.407C28.5275 119.091 28.4257 118.065 28.3676 118.137C28.3094 118.195 27.9168 119.135 27.4951 120.205C26.5353 122.663 25.4883 124.687 24.6449 125.742C24.2814 126.19 23.9324 126.566 23.8888 126.566C23.8306 126.566 23.787 125.742 23.7724 124.716C23.7579 123.284 23.6561 122.345 23.2926 120.422C23.0308 119.063 22.7982 117.949 22.7691 117.92C22.74 117.891 22.6237 118.354 22.4928 118.932C21.8093 121.998 20.3552 126.378 18.363 131.41L17.505 133.549L16.9088 131.93C15.222 127.448 14.4077 123.646 13.0262 113.988C12.6627 111.4 12.3282 109.202 12.2846 109.087C12.241 108.942 11.9647 109.13 11.3685 109.708L10.5105 110.547L10.3506 109.607C9.66711 105.732 9.40536 101.352 9.57986 97.2891C9.65257 95.771 9.69619 94.5276 9.69619 94.5132C9.68165 94.4987 9.11453 94.7156 8.44562 95.0048C7.76216 95.2939 6.88967 95.5686 6.49704 95.5975L5.78451 95.6698L5.87176 94.7734C5.92992 94.2674 6.32255 92.8072 6.75879 91.5204C7.47133 89.4096 8.03845 86.7927 7.83487 86.5758C7.79124 86.5469 7.23866 86.6915 6.59884 86.9228L5.43551 87.3421L5.85721 86.2722C6.08988 85.6795 6.54067 84.2048 6.86058 83.0048C7.71854 79.7084 8.1257 78.5228 8.96911 76.8457C9.39082 76.0072 9.71073 75.2987 9.68165 75.2698C9.62348 75.212 8.16933 75.5445 6.88967 75.906C6.58429 75.9927 6.62792 75.8626 7.34046 74.359C9.66711 69.5301 10.4814 65.3517 11.1358 55.2168C11.9356 42.7975 13.4479 37.6795 18.6538 29.959C23.3071 23.0192 29.9526 16.2385 36.6854 11.5397C41.9203 7.88187 47.1408 5.5686 51.9831 4.75897C53.1173 4.57101 54.9205 4.22403 55.9966 3.97824C58.4105 3.44331 61.755 2.89391 64.0381 2.66258C66.2775 2.43126 71.4688 2.54692 73.1556 2.86499C76.8347 3.54451 80.0483 4.87463 82.7967 6.81198C83.9455 7.62163 87.261 10.6722 87.261 10.918C87.261 10.9758 86.3448 10.5999 85.2397 10.0505C81.5316 8.2433 79.0741 7.69391 76.0494 7.99753C70.131 8.56139 67.8334 11.1638 65.4631 20.012L65.1723 21.0963L65.4777 20.7349C65.6376 20.5325 66.3938 19.1301 67.1354 17.6264C68.7786 14.2722 69.4039 13.2891 70.7417 11.9879C72.6612 10.1084 74.3335 9.24089 75.8313 9.3421C76.5147 9.39993 76.7474 9.47223 76.9801 9.76138C77.3727 10.2529 77.2273 11.1349 76.5002 12.4361C76.1803 13.0144 75.7295 14.171 75.4823 14.9951C75.2351 15.8337 74.9297 16.7734 74.8134 17.077C74.3917 18.0602 73.3738 19.4626 71.8614 21.1542C69.7238 23.5252 68.7932 25.5349 68.7932 27.7469C68.7932 29.3228 69.3167 30.2048 70.5963 30.7686L71.2943 31.0867L70.2328 31.3903C67.9788 32.0409 65.3177 32.4457 63.3692 32.4457C60.7517 32.4457 59.2103 32.9951 52.7247 36.2626C47.926 38.6915 46.53 39.2554 45.2504 39.2843C44.8432 39.2987 44.5087 39.3855 44.5087 39.4722C44.5087 39.9638 45.4103 40.1084 46.6609 39.8048C47.7806 39.5301 50.0636 38.5758 53.0883 37.1445C57.5089 35.0192 59.3557 34.5276 65.7394 33.7614C69.0985 33.3421 70.4945 33.1252 73.9554 32.4313C74.8715 32.2433 76.3257 32.1132 77.8962 32.0554C80.6736 31.9686 81.866 32.1276 83.3347 32.8361L84.1345 33.212L83.6256 33.3276C83.3493 33.3855 82.4332 33.5734 81.5898 33.7325C78.5942 34.3252 76.3257 35.106 73.5919 36.4795C72.0941 37.2313 69.9419 38.1566 68.3569 38.7349C65.1141 39.906 64.5616 40.1517 61.6969 41.6698C60.4754 42.3204 59.4575 42.8554 59.4138 42.8554C59.2248 42.8554 59.4138 42.3204 60.2282 40.6867C61.0716 38.9951 61.217 38.7927 62.5403 37.506C64.1399 35.959 64.358 35.6409 64.0962 35.2794C63.5873 34.5999 61.1734 34.7156 58.6431 35.5542C57.2472 36.0313 51.8668 38.3445 50.2527 39.1831C45.8902 41.4385 44.6105 41.9879 43.6362 41.9879C43.2291 41.9879 42.7783 41.612 42.7492 41.2505C42.7347 40.8023 42.4874 41.6554 42.4874 42.2192C42.4729 42.6385 42.5602 42.8843 42.7637 43.0722C43.8253 44.0264 47.7079 42.8698 54.2225 39.6891C57.7852 37.9397 58.5123 37.7228 58.934 38.2144C59.2539 38.6192 59.1957 38.9517 58.4396 41.0481C58.1196 41.9156 57.8579 42.9276 57.8579 43.2746C57.8434 43.7373 57.7125 44.0987 57.3489 44.6192C56.7818 45.4722 56.7382 45.8481 57.2181 46.0505C57.887 46.3541 59.4429 45.8048 64.5616 43.4337C65.7976 42.8698 67.4553 42.1469 68.2551 41.8288C75.1769 39.0819 78.5215 39.9927 83.5965 46.0216C86.6648 49.6505 88.3807 52.3831 91.638 58.7879C93.7611 62.9807 94.6626 64.4264 96.175 66.1758C97.1783 67.318 102.908 72.5084 104.246 73.4915C105.438 74.359 105.423 74.4313 104.056 74.5758C102.995 74.706 102.239 74.9228 102.239 75.1252C102.239 75.1975 102.806 75.8626 103.518 76.5855C104.216 77.3228 105.336 78.5228 106.005 79.2457L107.227 80.5903H110.949H114.672L118.089 77.2361C119.965 75.3855 123.964 71.4529 126.959 68.518L132.413 63.1542L136.281 62.0987L140.134 61.0288L153.658 47.6987C161.089 40.3541 167.181 34.3686 167.196 34.3831C167.225 34.3975 165.596 38.9951 163.604 44.5903C161.612 50.1855 160.012 54.7975 160.056 54.8409C160.085 54.8843 162.019 53.0337 164.331 50.7349C166.658 48.4216 168.548 46.6289 168.548 46.7156C168.548 46.8168 168.81 51.0385 169.13 56.1132C169.45 61.1879 169.726 65.6554 169.741 66.0457L169.784 66.7542L165.117 68.0698L160.449 69.3855L154.719 74.9807L149.005 80.5903H165.349L181.709 80.5758L198.868 63.6168C208.305 54.277 216.056 46.6722 216.085 46.7011C216.172 46.7734 217.423 66.465 217.35 66.6385C217.321 66.7252 215.198 67.3758 212.624 68.0843L207.956 69.3855L202.328 74.9807L196.686 80.5903H231.077H265.468L258.226 73.3903L250.999 66.1903L247.306 65.1927L243.612 64.1807L232.677 53.4096L221.756 42.6385L218.31 41.6698C216.419 41.1204 214.791 40.7011 214.689 40.7156C214.602 40.7445 211.824 43.4192 208.538 46.6722L202.547 52.5855L197.879 47.9445L193.196 43.3036L189.837 42.2481L186.464 41.1927L179.775 34.5999L173.071 28.0072L168.956 28.5999L164.84 29.1782L151.2 42.7108C138.375 55.4192 137.517 56.2433 136.804 56.4746C136.382 56.6048 134.594 57.1108 132.82 57.6023L129.577 58.4987L121.07 66.8843C112.796 75.0385 112.549 75.2698 112.229 75.0529C111.662 74.677 107.721 70.7301 106.427 69.2409C100.886 62.8072 96.6403 55.0144 94.2264 46.8168L93.7611 45.1975L94.4445 42.1903C94.8226 40.5276 95.4188 37.9252 95.7533 36.4216C96.553 32.9228 96.8584 30.8698 96.9602 28.2529C97.1638 22.918 95.8987 18.118 93.3103 14.3879C92.3214 12.9566 87.3628 7.79512 85.8941 6.63849C84.3817 5.48186 83.0439 4.67223 81.2262 3.80475C75.9331 1.31801 68.3133 0.118011 61.2461 0.652939ZM83.262 11.1204C83.9891 11.4096 85.356 11.9301 86.3158 12.2626C88.5261 13.0433 88.5552 13.0578 89.2532 13.9686C91.9288 17.4674 93.383 22.5421 93.1648 27.6746C93.1212 28.8313 93.0194 30.1903 92.9322 30.6963C92.8449 31.2023 92.8013 31.6361 92.8449 31.6795C92.9467 31.7951 93.6156 30.2192 93.8919 29.1927C94.3136 27.6313 94.2846 22.759 93.8338 20.3156C93.6593 19.3325 93.5429 18.4939 93.572 18.465C93.6593 18.3638 94.5318 20.6915 94.8226 21.8192C95.9714 26.3011 95.3897 32.1421 92.9758 39.9349C92.5977 41.1638 92.2487 42.0602 92.2051 41.959C92.1469 41.8578 91.987 41.0192 91.8561 40.1084C91.2744 36.1758 90.5474 34.2529 89.0787 32.7927C87.5518 31.2602 86.1849 30.8264 82.2441 30.5807C80.8918 30.4939 79.0159 30.2915 78.0998 30.118C77.1837 29.9445 76.253 29.7855 76.0349 29.771C75.366 29.6987 73.81 29.1349 73.1266 28.7011C72.2686 28.1517 71.8469 27.3132 71.8469 26.1421C71.8469 24.3349 72.4867 22.8023 74.348 20.171C75.6859 18.2915 76.4275 16.9614 77.0819 15.3132C78.4488 11.8867 79.8011 10.3686 81.3716 10.5132C81.6915 10.5421 82.5495 10.8168 83.262 11.1204Z" fill="white"/>
<path d="M72.6758 13.101C72.5594 13.289 72.2832 13.7516 72.065 14.1564C71.8324 14.5468 71.2943 15.3998 70.8726 16.036C70.4509 16.6577 69.971 17.5974 69.8111 18.1034C69.5057 19.0866 69.4039 21.0818 69.6657 21.2408C69.8983 21.3854 70.9453 20.3299 71.4979 19.3757C71.7887 18.8986 72.2832 18.1179 72.6031 17.6552C73.3883 16.5275 73.7809 15.3854 73.7955 14.1854C73.81 13.3613 73.7664 13.1589 73.5337 12.9854C73.1266 12.6962 72.9084 12.7251 72.6758 13.101Z" fill="white"/>
<path d="M59.8501 15.2552C58.1342 15.6022 55.7348 15.7034 49.4529 15.7324C43.4908 15.7468 42.5602 15.7757 41.5277 16.0215C39.2011 16.542 37.2234 17.583 35.7983 19.0287C35.0567 19.795 34.0097 21.183 34.1115 21.2842C34.1261 21.3131 34.7804 20.836 35.5511 20.2432C36.3218 19.6504 37.3688 18.9275 37.8778 18.6384C38.9248 18.0601 40.7425 17.554 41.7313 17.554L42.4002 17.5685L41.8185 17.8721C40.8733 18.3637 40.2044 18.9565 39.6519 19.795C37.616 22.8167 38.3286 26.9372 41.1206 28.4263C42.1821 28.9902 42.662 29.0769 41.8476 28.5565C40.1026 27.4287 39.5646 25.0577 40.5971 22.9468C41.0042 22.0938 41.5423 21.7468 42.4293 21.7468C43.4327 21.7468 43.709 21.9781 43.5781 22.7444C43.4617 23.4962 43.7235 24.1613 44.3779 24.6962C44.7996 25.0577 44.945 25.101 45.6575 25.0432C46.341 24.9854 46.5155 24.8986 46.9372 24.4504C47.2862 24.0601 47.4171 23.7854 47.4171 23.4239C47.4171 23.1492 47.5479 22.7733 47.737 22.542C48.0278 22.1805 48.1005 22.1516 48.9003 22.2095C49.5838 22.2528 49.831 22.354 50.1945 22.701C50.6453 23.1203 50.6453 23.1203 50.5726 24.3637C50.4562 26.4745 49.482 28.0649 47.8097 28.8456L47.1989 29.1348L47.8824 29.0769C49.3656 28.9468 51.1542 27.5589 51.8668 26.0119C52.2012 25.289 52.2594 24.942 52.3612 22.6432C52.5066 19.5926 52.6375 19.101 53.4954 18.4938C54.1062 18.0745 54.1789 18.0601 55.7494 18.0601C57.0872 18.0601 57.4944 18.1179 58.0324 18.3637C59.0939 18.8552 59.6174 19.3902 60.1555 20.5757C60.8099 21.9926 61.2897 22.6143 61.7405 22.6143C62.3076 22.6143 62.4531 21.8769 62.3513 19.5926C62.264 17.5396 61.8568 15.4432 61.5078 15.2263C61.2606 15.0818 60.6499 15.0818 59.8501 15.2552Z" fill="white"/>
<path d="M61.5951 28.2819C59.5592 30.0168 56.2292 31.853 52.2157 33.4578C48.0859 35.1205 45.9774 36.2193 45.0177 37.2168L44.5959 37.665L45.672 37.159C46.2682 36.8988 48.275 36.1325 50.1072 35.4819C58.8176 32.3879 60.868 31.2458 62.0168 28.8891C62.3076 28.2819 62.5257 27.7325 62.5112 27.6602C62.4821 27.5879 62.0749 27.8771 61.5951 28.2819Z" fill="white"/>
<path d="M262.778 91.2457C257.557 91.5638 252.453 93.2698 249.167 95.7855C243.423 100.181 241.416 108.349 244.528 114.638C246.244 118.094 249.545 120.899 253.98 122.648C256.234 123.53 258.852 124.282 265.09 125.843C268.26 126.638 271.735 127.549 272.812 127.882C275.065 128.547 277.378 129.588 278.73 130.557C281.376 132.436 282.613 135.732 281.9 139.058C280.722 144.624 274.397 147.964 265.701 147.631C262.123 147.501 259.52 146.908 256.845 145.651C253.137 143.901 250.985 141.747 249.69 138.508C249.225 137.352 248.527 134.605 248.527 133.911C248.527 133.694 248.483 133.491 248.425 133.463C248.353 133.434 246.68 133.549 244.674 133.737C242.681 133.925 240.951 134.07 240.849 134.084C240.442 134.099 241.082 138.306 241.823 140.489C243.059 144.118 245.575 147.66 248.454 149.858C251.639 152.272 255.478 153.761 260.597 154.542C262.632 154.86 268.783 155.005 270.718 154.773C276.636 154.079 281.449 151.969 284.896 148.557C287.557 145.896 289.316 142.499 289.825 139.029C290.087 137.294 289.941 133.882 289.563 132.465C288.298 127.766 285.332 124.398 280.3 121.911C277.465 120.494 274.004 119.467 265.032 117.385C257.79 115.694 254.067 114.19 252.613 112.383C251.406 110.908 250.926 109.347 251.028 107.279C251.115 105.66 251.479 104.59 252.41 103.231C254.096 100.773 256.859 99.3421 261.062 98.7204C263.33 98.3879 268.522 98.5035 270.339 98.9228C274.673 99.9349 277.174 101.742 278.861 105.053C279.442 106.21 280.024 108.118 280.17 109.347C280.286 110.402 279.762 110.33 284.517 109.94C286.437 109.781 288.066 109.651 288.138 109.651C288.196 109.651 288.211 109.173 288.153 108.595C287.673 103.535 285.288 98.9662 281.624 96.0746C277.247 92.6192 270.165 90.7975 262.778 91.2457Z" fill="white"/>
<path d="M62.3949 123.024V153.906L76.762 153.848C87.0138 153.805 91.449 153.747 92.2778 153.617C98.0654 152.749 101.759 151.188 104.376 148.499C105.409 147.443 106.674 145.651 107.401 144.205C109.64 139.766 109.902 134.026 108.041 129.689C107.052 127.39 104.958 124.875 102.85 123.487C101.715 122.735 99.4905 121.636 98.5016 121.347C98.1526 121.246 97.8764 121.13 97.8764 121.072C97.8764 121.014 98.1963 120.798 98.6034 120.581C98.9961 120.364 99.8395 119.814 100.45 119.352C107.605 114.046 108.23 103.896 101.803 97.3614C98.6325 94.1373 94.779 92.706 88.1771 92.3012C86.8393 92.2289 80.4846 92.1566 74.0718 92.1566H62.3949V123.024ZM90.242 99.8626C92.8159 100.296 94.1246 100.86 95.4334 102.104C96.4804 103.087 97.1493 104.157 97.6728 105.675C98.0508 106.73 98.0799 107.005 98.0799 108.928C98.0799 110.851 98.0508 111.125 97.6873 112.166C96.9602 114.234 95.7533 115.636 93.8483 116.619C92.6559 117.255 91.6962 117.545 89.8785 117.848C88.7588 118.036 86.8248 118.094 79.5976 118.137L70.6836 118.21V108.855V99.5012L79.743 99.5735C87.3046 99.6168 89.0205 99.6747 90.242 99.8626ZM90.8673 125.742C92.9031 126.06 93.9792 126.364 95.1862 126.913C96.6112 127.578 97.8473 128.533 98.6761 129.617C99.9849 131.337 100.581 133.029 100.741 135.386C100.93 138.61 99.9122 141.458 97.7891 143.569C96.1895 145.159 93.4557 146.229 90.2566 146.518C89.4568 146.59 84.7162 146.648 79.743 146.663H70.6836V136.022V125.381L80.0338 125.453C87.7263 125.496 89.6313 125.554 90.8673 125.742Z" fill="white"/>
<path d="M115.428 92.2576C115.37 92.301 115.326 106.195 115.326 123.125V153.891H119.471H123.615L123.586 123.053L123.542 92.2287L119.529 92.1853C117.333 92.1709 115.486 92.1998 115.428 92.2576Z" fill="white"/>
<path d="M131.613 123.024V153.891H135.757H139.901V140.214V126.537L146.707 126.595C153.323 126.653 153.527 126.667 154.516 126.985C156.944 127.781 158.922 129.154 160.783 131.352C163.226 134.229 165.378 137.381 171.82 147.487L175.892 153.891H181.025C185.097 153.891 186.144 153.848 186.056 153.703C185.518 152.807 175.397 136.99 174.641 135.891C172.46 132.682 169.435 129.328 167.53 127.983C167.007 127.621 165.975 127 165.218 126.595C164.07 125.988 163.895 125.858 164.2 125.8C164.39 125.756 165.277 125.583 166.149 125.409C174.714 123.747 179.862 118.947 181.011 111.602C181.272 109.911 181.185 107.005 180.836 105.385C180.109 102.046 178.568 99.1106 176.372 96.9564C173.274 93.8769 169.624 92.6914 162.077 92.301C160.565 92.2287 153.076 92.1564 145.471 92.1564H131.613V123.024ZM164.331 99.4865C167.007 100.137 168.767 101.062 170.104 102.465C171.791 104.258 172.489 105.964 172.591 108.523C172.678 110.634 172.402 111.978 171.529 113.641C169.639 117.299 166.571 118.874 160.478 119.323C159.358 119.409 154.269 119.482 149.179 119.482H139.901V109.289V99.0817L151.506 99.1395C162.674 99.1829 163.139 99.1974 164.331 99.4865Z" fill="white"/>
<path d="M187.452 123.01V153.906L201.092 153.848C214.194 153.805 214.791 153.79 216.637 153.487C223.966 152.316 228.605 149.742 232.371 144.798C236.923 138.826 239.22 129.747 238.653 120.046C238.057 110.099 235.076 103.014 229.332 97.8819C225.784 94.7156 221.451 93.0241 215.372 92.4313C214.354 92.3301 208.581 92.2434 200.583 92.2L187.452 92.1277V123.01ZM214.267 99.747C219.008 100.239 221.901 101.554 224.49 104.359C227.485 107.612 229.07 111.226 229.87 116.663C230.234 119.135 230.234 126.031 229.87 128.59C228.983 134.865 227.18 139.087 224.097 142.181C222.469 143.814 221.189 144.581 218.804 145.39C215.561 146.489 213.438 146.663 203.419 146.663H195.741V123.096V99.5301H203.957C210.268 99.5301 212.668 99.5879 214.267 99.747Z" fill="white"/>
<path d="M100.436 158.749C98.3271 159.212 96.6839 160.137 95.2588 161.641C93.1648 163.853 92.3069 166.311 92.3069 170.084C92.3069 172.412 92.5395 173.569 93.3539 175.347C95.317 179.67 99.8976 182.012 104.711 181.173C108.826 180.465 111.574 178.079 112.898 174.089C113.276 172.918 113.334 172.499 113.407 170.605C113.479 168.19 113.334 167.034 112.709 165.284C112.156 163.723 111.487 162.653 110.309 161.482C108.346 159.53 106.267 158.677 103.257 158.576C101.962 158.532 101.148 158.59 100.436 158.749ZM104.711 161.279C105.831 161.54 107.168 162.263 107.968 163.058C108.899 163.997 109.379 164.793 109.888 166.267C110.222 167.25 110.295 167.713 110.353 169.506C110.411 171.906 110.208 173.193 109.539 174.624C108.652 176.503 107.081 177.891 105.191 178.47C104.071 178.817 101.977 178.86 100.857 178.557C98.3707 177.906 96.5239 176.026 95.7242 173.366C95.4188 172.354 95.3752 171.891 95.3752 170.157C95.3752 167.757 95.6224 166.412 96.3494 164.937C97.1929 163.231 98.8942 161.858 100.828 161.337C101.73 161.106 103.795 161.063 104.711 161.279Z" fill="white"/>
<path d="M161.932 158.749C159.62 159.255 157.904 160.484 157.017 162.277C156.595 163.13 156.552 163.332 156.552 164.59C156.552 165.805 156.595 166.065 156.959 166.788C157.948 168.798 159.518 169.694 164.113 170.865C167.734 171.79 168.577 172.094 169.334 172.716C170.875 173.973 170.744 176.388 169.086 177.602C166.847 179.236 162.325 179.019 160.085 177.169C159.474 176.663 158.704 175.231 158.544 174.277C158.457 173.757 158.384 173.626 158.151 173.655C157.991 173.67 157.351 173.728 156.726 173.771L155.592 173.872L155.679 174.537C156.13 177.819 158.166 180.06 161.525 180.942C163.081 181.361 166.44 181.405 167.807 181.029C170.73 180.234 172.664 178.354 173.202 175.795C173.536 174.19 173.071 172.369 171.995 171.154C170.701 169.694 169.275 169.072 164.579 167.916C160.361 166.889 159.387 166.238 159.387 164.446C159.387 163.058 160.332 161.916 161.859 161.438C162.979 161.106 165.713 161.106 166.818 161.438C168.258 161.887 169.435 163.188 169.654 164.576C169.712 164.908 169.813 165.212 169.886 165.255C169.959 165.299 170.613 165.299 171.326 165.241L172.62 165.14V164.605C172.605 163.838 171.995 162.248 171.399 161.424C170.482 160.195 169.174 159.371 167.341 158.851C166.193 158.532 163.153 158.475 161.932 158.749Z" fill="white"/>
<path d="M62.4967 158.894C62.4385 158.952 62.3949 163.94 62.3949 169.968V180.927H63.9218H65.4486V175.723V170.518H71.1198H76.7911V175.723V180.927H78.3179H79.8448L79.8157 169.896L79.7721 158.879H78.3179H76.8638L76.8201 163.39L76.7911 167.915H71.1198H65.4486L65.4195 163.39L65.3759 158.879L63.9945 158.836C63.2238 158.821 62.5549 158.836 62.4967 158.894Z" fill="white"/>
<path d="M125.854 159.009C125.811 159.125 125.796 162.682 125.825 166.932C125.883 174.277 125.898 174.696 126.203 175.752C127.018 178.701 128.544 180.219 131.467 181.014C132.791 181.376 136.252 181.376 137.575 181.014C139.683 180.436 141.443 179.091 142.228 177.443C143.144 175.506 143.173 175.159 143.173 166.614V158.879L141.763 158.836L140.338 158.793V165.125C140.338 174.494 140.149 175.925 138.738 177.328C137.72 178.34 136.571 178.658 134.172 178.6C132.456 178.542 132.34 178.513 131.38 178.036C130.231 177.443 129.562 176.677 129.213 175.535C128.835 174.306 128.704 171.805 128.704 165.125V158.807H127.323C126.261 158.807 125.912 158.85 125.854 159.009Z" fill="white"/>
<path d="M185.853 169.867V180.927H194.142H202.43V179.626V178.325H195.596H188.761V174.566V170.807H194.869H200.976V169.506V168.205H194.869H188.761V164.879V161.554H195.305H201.849V160.181V158.807H193.851H185.853V169.867Z" fill="white"/>
</svg>
