<svg width="290" height="182" fill="none" xmlns="http://www.w3.org/2000/svg">
<path d="M61.246.653a52.42 52.42 0 0 0-6.122.867c-.756.174-2.065.362-2.894.434-5.83.535-13.814 4.338-20.503 9.788-7.198 5.87-15.284 15.542-18.788 22.468-2.632 5.219-3.926 10.583-5.075 21.151-1.352 12.52-2.4 17.09-5.104 22.468l-.974 1.923.756-.087c.407-.043 1.076-.13 1.498-.174l.741-.1-.494 1.33a43.72 43.72 0 0 0-1.018 3.166c-.844 3.021-1.513 5.103-1.963 6.086-.233.507-.407.94-.393.955.03.029.64-.044 1.352-.16 1.978-.303 1.862-.332 1.745.55-.058.42-.436 1.937-.828 3.369-.437 1.605-.742 3.065-.8 3.788l-.087 1.2h1.148c1.018 0 1.585-.102 3.083-.52l.32-.088v2.95c0 4.308.32 7.879 1.105 12.115.538 2.906.466 2.791 1.207 1.822.35-.448.684-.781.742-.737.058.029.145.405.203.824.364 2.732 2.138 10.626 3.272 14.516 1.149 3.947 3.68 10.901 3.956 10.901.232 0 2.85-7.374 3.984-11.205l.509-1.735-.102 1.72-.087 1.735.916-.722c1.221-.955 2.632-2.473 3.505-3.803.392-.593.712-1.012.712-.925 0 .477-.843 2.906-1.527 4.438l-.785 1.75 2.21-2.241c1.207-1.244 2.603-2.776 3.069-3.441.48-.651.887-1.157.916-1.128.029.015-.088.419-.248.897-.756 2.139-2.908 11.118-2.908 12.028 0 .159.131.058.32-.26 3.432-5.537 7.78-11.031 11.604-14.646l1.309-1.243v-2.79l-.015-2.791-.392.449c-.218.26-.99 1.127-1.702 1.951-1.512 1.721-3.737 4.656-5.38 7.07a70.202 70.202 0 0 1-1.265 1.807c-.16.174.77-2.472 2.85-8.067 1.323-3.571 2.21-6.246 2.617-7.966.102-.391.088-.405-.13-.232-.131.116-1.178 1.605-2.313 3.311-4.565 6.868-5.176 7.793-5.903 8.762-.51.679-.727.896-.684.65.218-1.026.276-2.27.175-4.424-.058-1.316-.16-2.342-.218-2.27-.059.058-.451.998-.873 2.068-.96 2.458-2.007 4.482-2.85 5.537-.364.448-.713.824-.756.824-.058 0-.102-.824-.117-1.85-.014-1.432-.116-2.371-.48-4.294-.261-1.359-.494-2.473-.523-2.502-.029-.029-.145.434-.276 1.012-.684 3.066-2.138 7.446-4.13 12.478l-.858 2.139-.596-1.619c-1.687-4.482-2.501-8.284-3.883-17.942-.363-2.588-.698-4.786-.741-4.901-.044-.145-.32.043-.917.621l-.857.839-.16-.94c-.684-3.875-.946-8.255-.771-12.318.073-1.518.116-2.761.116-2.776-.014-.014-.581.203-1.25.492-.684.289-1.556.564-1.949.593l-.712.072.087-.897c.058-.506.45-1.966.887-3.253.712-2.11 1.28-4.727 1.076-4.944-.044-.03-.596.116-1.236.347l-1.163.42.421-1.07c.233-.593.684-2.068 1.004-3.268.858-3.297 1.265-4.482 2.108-6.16.422-.838.742-1.546.713-1.575-.059-.058-1.513.275-2.792.636-.306.087-.262-.043.45-1.547 2.327-4.829 3.141-9.007 3.796-19.142.8-12.42 2.312-17.538 7.518-25.258 4.653-6.94 11.299-13.72 18.031-18.42 5.235-3.657 10.456-5.97 15.298-6.78a82.126 82.126 0 0 0 4.014-.78c2.413-.536 5.758-1.085 8.041-1.316 2.24-.232 7.43-.116 9.118.202 3.679.68 6.892 2.01 9.64 3.947 1.15.81 4.465 3.86 4.465 4.106 0 .058-.916-.318-2.021-.867-3.708-1.808-6.166-2.357-9.19-2.053-5.919.563-8.217 3.166-10.587 12.014l-.29 1.084.305-.361c.16-.203.916-1.605 1.657-3.109 1.644-3.354 2.269-4.337 3.607-5.638 1.92-1.88 3.591-2.747 5.09-2.646.683.058.915.13 1.148.42.393.49.247 1.373-.48 2.674-.32.578-.77 1.735-1.018 2.56a39.4 39.4 0 0 1-.669 2.081c-.421.983-1.44 2.386-2.952 4.077-2.137 2.371-3.068 4.38-3.068 6.593 0 1.576.524 2.458 1.803 3.022l.698.318-1.061.303c-2.254.65-4.915 1.056-6.864 1.056-2.617 0-4.159.55-10.644 3.817-4.799 2.428-6.195 2.992-7.475 3.021-.407.015-.741.102-.741.188 0 .492.901.636 2.152.333 1.12-.275 3.403-1.23 6.427-2.66 4.42-2.126 6.268-2.617 12.651-3.384 3.36-.419 4.755-.636 8.216-1.33.916-.188 2.37-.318 3.941-.376 2.778-.086 3.97.073 5.439.781l.8.376-.51.116c-.276.057-1.192.245-2.035.404-2.996.593-5.264 1.374-7.998 2.748a55.91 55.91 0 0 1-5.235 2.255c-3.243 1.171-3.795 1.417-6.66 2.935-1.222.65-2.24 1.185-2.283 1.185-.19 0 0-.535.814-2.168.844-1.692.989-1.894 2.312-3.181 1.6-1.547 1.818-1.865 1.556-2.227-.509-.68-2.923-.563-5.453.275-1.396.477-6.776 2.79-8.39 3.63-4.363 2.255-5.642 2.804-6.617 2.804-.407 0-.858-.376-.887-.737-.014-.449-.262.404-.262.968-.014.42.073.665.277.853 1.061.954 4.944-.202 11.458-3.383 3.563-1.75 4.29-1.966 4.712-1.475.32.405.262.738-.494 2.834-.32.868-.582 1.88-.582 2.227-.015.462-.145.824-.51 1.344-.566.853-.61 1.23-.13 1.431.669.304 2.225-.245 7.344-2.616a103.87 103.87 0 0 1 3.693-1.605c6.922-2.747 10.267-1.836 15.342 4.193 3.068 3.629 4.784 6.361 8.041 12.766 2.123 4.193 3.025 5.638 4.537 7.388 1.003 1.142 6.733 6.332 8.071 7.316 1.192.867 1.177.94-.19 1.084-1.061.13-1.817.347-1.817.55 0 .072.567.737 1.279 1.46.698.737 1.818 1.937 2.487 2.66l1.222 1.344h7.445l3.417-3.354c1.876-1.85 5.875-5.783 8.87-8.718l5.454-5.364 3.868-1.055 3.853-1.07 13.524-13.33c7.431-7.345 13.523-13.33 13.538-13.316.029.014-1.6 4.612-3.592 10.207-1.992 5.595-3.592 10.207-3.548 10.25.029.044 1.963-1.806 4.275-4.105 2.327-2.313 4.217-4.106 4.217-4.02 0 .102.262 4.323.582 9.398.32 5.075.596 9.542.611 9.933l.043.708-4.667 1.316-4.668 1.316-5.73 5.595-5.714 5.61h16.344l16.36-.015 17.159-16.96c9.437-9.339 17.188-16.944 17.217-16.915.087.072 1.338 19.764 1.265 19.937-.029.087-2.152.738-4.726 1.446l-4.668 1.301-5.628 5.596-5.642 5.61h68.782l-7.242-7.2-7.227-7.2-3.693-.998-3.694-1.012-10.935-10.771-10.921-10.771-3.446-.97c-1.891-.549-3.519-.968-3.621-.953-.087.029-2.865 2.703-6.151 5.956l-5.991 5.914-4.668-4.642-4.683-4.64-3.359-1.056-3.373-1.055-6.689-6.593-6.704-6.593-4.115.593-4.116.578-13.64 13.533c-12.825 12.708-13.683 13.532-14.396 13.764-.422.13-2.21.636-3.984 1.127l-3.243.897-8.507 8.385c-8.274 8.154-8.521 8.386-8.841 8.169-.567-.376-4.508-4.323-5.802-5.812-5.541-6.434-9.787-14.227-12.2-22.424l-.466-1.62.684-3.007c.378-1.662.974-4.265 1.308-5.768.8-3.5 1.105-5.552 1.207-8.17.204-5.334-1.061-10.134-3.65-13.864-.989-1.431-5.947-6.593-7.416-7.75-1.512-1.156-2.85-1.966-4.668-2.833C75.933 1.318 68.313.118 61.246.653zM83.262 11.12c.727.29 2.094.81 3.054 1.143 2.21.78 2.24.795 2.937 1.706 2.676 3.498 4.13 8.573 3.912 13.706-.044 1.156-.146 2.515-.233 3.021-.087.506-.13.94-.087.983.102.116.77-1.46 1.047-2.486.422-1.562.393-6.434-.058-8.877-.175-.983-.291-1.822-.262-1.851.087-.101.96 2.227 1.25 3.354 1.15 4.482.568 10.323-1.846 18.116-.378 1.229-.727 2.125-.77 2.024-.06-.101-.219-.94-.35-1.85-.582-3.933-1.309-5.856-2.777-7.316-1.527-1.533-2.894-1.967-6.835-2.212-1.352-.087-3.228-.29-4.144-.463-.916-.173-1.847-.332-2.065-.347-.669-.072-2.225-.636-2.908-1.07-.858-.55-1.28-1.388-1.28-2.559 0-1.807.64-3.34 2.501-5.971 1.338-1.88 2.08-3.21 2.734-4.858 1.367-3.426 2.72-4.944 4.29-4.8.32.03 1.177.304 1.89.607z" fill="#fff"/>
<path d="M72.676 13.101c-.117.188-.393.65-.611 1.055-.233.39-.77 1.244-1.192 1.88-.422.622-.902 1.561-1.062 2.067-.305.984-.407 2.979-.145 3.138.232.144 1.28-.911 1.832-1.865.29-.477.785-1.258 1.105-1.72.785-1.128 1.178-2.27 1.193-3.47.014-.825-.03-1.027-.262-1.2-.407-.29-.626-.26-.858.115zM59.85 15.255c-1.716.347-4.115.448-10.397.477-5.962.015-6.893.044-7.925.29-2.327.52-4.305 1.561-5.73 3.007-.741.766-1.788 2.154-1.687 2.255.015.03.67-.448 1.44-1.04.77-.594 1.818-1.317 2.327-1.606 1.047-.578 2.864-1.084 3.853-1.084l.67.015-.583.303c-.945.492-1.614 1.084-2.166 1.923-2.036 3.022-1.323 7.142 1.469 8.631 1.061.564 1.541.65.727.13-1.745-1.127-2.283-3.498-1.25-5.61.406-.852.944-1.2 1.831-1.2 1.004 0 1.28.232 1.15.998-.117.752.145 1.417.799 1.952.422.362.567.405 1.28.347.683-.058.858-.144 1.28-.593.348-.39.48-.665.48-1.026 0-.275.13-.65.319-.882.29-.362.363-.39 1.163-.333.684.044.931.145 1.294.492.451.42.451.42.379 1.663-.117 2.11-1.091 3.7-2.763 4.482l-.611.289.683-.058c1.484-.13 3.272-1.518 3.985-3.065.334-.723.392-1.07.494-3.369.146-3.05.277-3.542 1.134-4.15.611-.418.684-.433 2.254-.433 1.338 0 1.745.058 2.283.304 1.062.491 1.585 1.026 2.124 2.212.654 1.417 1.134 2.038 1.584 2.038.568 0 .713-.737.611-3.021-.087-2.053-.494-4.15-.843-4.367-.247-.144-.858-.144-1.658.03zM61.595 28.282c-2.036 1.735-5.366 3.571-9.38 5.176-4.13 1.663-6.238 2.761-7.197 3.759l-.422.448 1.076-.506c.596-.26 2.603-1.026 4.435-1.677 8.71-3.094 10.761-4.236 11.91-6.593.29-.607.509-1.156.494-1.229-.029-.072-.436.217-.916.622zM262.778 91.246c-5.221.318-10.325 2.024-13.611 4.54-5.744 4.395-7.751 12.563-4.639 18.852 1.716 3.456 5.017 6.261 9.452 8.01 2.254.882 4.872 1.634 11.11 3.195 3.17.795 6.645 1.706 7.722 2.039 2.253.665 4.566 1.706 5.918 2.675 2.646 1.879 3.883 5.175 3.17 8.501-1.178 5.566-7.503 8.906-16.199 8.573-3.578-.13-6.181-.723-8.856-1.98-3.708-1.75-5.86-3.904-7.155-7.143-.465-1.156-1.163-3.903-1.163-4.597 0-.217-.044-.42-.102-.448-.072-.029-1.745.086-3.751.274-1.993.188-3.723.333-3.825.347-.407.015.233 4.222.974 6.405 1.236 3.629 3.752 7.171 6.631 9.369 3.185 2.414 7.024 3.903 12.143 4.684 2.035.318 8.186.463 10.121.231 5.918-.694 10.731-2.804 14.178-6.216 2.661-2.661 4.42-6.058 4.929-9.528.262-1.735.116-5.147-.262-6.564-1.265-4.699-4.231-8.067-9.263-10.554-2.835-1.417-6.296-2.444-15.268-4.526-7.242-1.691-10.965-3.195-12.419-5.002-1.207-1.475-1.687-3.036-1.585-5.104.087-1.619.451-2.689 1.382-4.048 1.686-2.458 4.449-3.889 8.652-4.51 2.268-.333 7.46-.218 9.277.202 4.334 1.012 6.835 2.819 8.522 6.13.581 1.157 1.163 3.065 1.309 4.294.116 1.055-.408.983 4.347.593 1.92-.159 3.549-.289 3.621-.289.058 0 .073-.478.015-1.056-.48-5.06-2.865-9.629-6.529-12.52-4.377-3.456-11.459-5.278-18.846-4.83zM62.395 123.024v30.882l14.367-.058c10.252-.043 14.687-.101 15.516-.231 5.787-.868 9.481-2.429 12.098-5.118 1.033-1.056 2.298-2.848 3.025-4.294 2.239-4.439 2.501-10.179.64-14.516-.989-2.299-3.083-4.814-5.191-6.202-1.135-.752-3.36-1.851-4.348-2.14-.35-.101-.626-.217-.626-.275 0-.058.32-.274.727-.491a19.483 19.483 0 0 0 1.847-1.229c7.155-5.306 7.78-15.456 1.353-21.99-3.17-3.225-7.024-4.656-13.626-5.06-1.338-.073-7.692-.145-14.105-.145H62.395v30.867zm27.847-23.161c2.574.433 3.883.997 5.191 2.241 1.047.983 1.716 2.053 2.24 3.571.378 1.055.407 1.33.407 3.253s-.03 2.197-.393 3.238c-.727 2.068-1.934 3.47-3.839 4.453-1.192.636-2.152.926-3.97 1.229-1.12.188-3.053.246-10.28.289l-8.914.073V99.501l9.059.072c7.562.044 9.278.102 10.499.29zm.625 25.879c2.036.318 3.112.622 4.32 1.171 1.424.665 2.66 1.62 3.49 2.704 1.308 1.72 1.904 3.412 2.064 5.769.189 3.224-.829 6.072-2.952 8.183-1.6 1.59-4.333 2.66-7.532 2.949-.8.072-5.54.13-10.514.145h-9.06v-21.282l9.35.072c7.693.043 9.598.101 10.834.289zM115.428 92.258c-.058.043-.102 13.937-.102 30.867v30.766h8.289l-.029-30.838-.044-30.824-4.013-.044c-2.196-.014-4.043.015-4.101.073zM131.613 123.024v30.867h8.288v-27.354l6.806.058c6.616.058 6.82.072 7.809.39 2.428.796 4.406 2.169 6.267 4.367 2.443 2.877 4.595 6.029 11.037 16.135l4.072 6.404h5.133c4.072 0 5.119-.043 5.031-.188-.538-.896-10.659-16.713-11.415-17.812-2.181-3.209-5.206-6.563-7.111-7.908a28.907 28.907 0 0 0-2.312-1.388c-1.148-.607-1.323-.737-1.018-.795.19-.044 1.077-.217 1.949-.391 8.565-1.662 13.713-6.462 14.862-13.807.261-1.691.174-4.597-.175-6.217-.727-3.339-2.268-6.274-4.464-8.429-3.098-3.08-6.748-4.265-14.295-4.655-1.512-.072-9.001-.145-16.606-.145h-13.858v30.868zm32.718-23.537c2.676.65 4.436 1.575 5.773 2.978 1.687 1.793 2.385 3.499 2.487 6.058.087 2.111-.189 3.455-1.062 5.118-1.89 3.658-4.958 5.233-11.051 5.682-1.12.086-6.209.159-11.299.159h-9.278v-20.4l11.605.058c11.168.043 11.633.057 12.825.347zM187.452 123.01v30.896l13.64-.058c13.102-.043 13.699-.058 15.545-.361 7.329-1.171 11.968-3.745 15.734-8.689 4.552-5.972 6.849-15.051 6.282-24.752-.596-9.947-3.577-17.032-9.321-22.164-3.548-3.166-7.881-4.858-13.96-5.45-1.018-.102-6.791-.189-14.789-.232l-13.131-.072v30.882zm26.815-23.263c4.741.492 7.634 1.807 10.223 4.612 2.995 3.253 4.58 6.867 5.38 12.304.364 2.472.364 9.368 0 11.927-.887 6.275-2.69 10.497-5.773 13.591-1.628 1.633-2.908 2.4-5.293 3.209-3.243 1.099-5.366 1.273-15.385 1.273h-7.678V99.53h8.216c6.311 0 8.711.058 10.31.217zM100.436 158.749c-2.109.463-3.752 1.388-5.177 2.892-2.094 2.212-2.952 4.67-2.952 8.443 0 2.328.233 3.485 1.047 5.263 1.963 4.323 6.544 6.665 11.357 5.826 4.115-.708 6.863-3.094 8.187-7.084.378-1.171.436-1.59.509-3.484.072-2.415-.073-3.571-.698-5.321-.553-1.561-1.222-2.631-2.4-3.802-1.963-1.952-4.042-2.805-7.052-2.906-1.295-.044-2.109.014-2.821.173zm4.275 2.53c1.12.261 2.457.984 3.257 1.779.931.939 1.411 1.735 1.92 3.209.334.983.407 1.446.465 3.239.058 2.4-.145 3.687-.814 5.118-.887 1.879-2.458 3.267-4.348 3.846-1.12.347-3.214.39-4.334.087-2.486-.651-4.333-2.531-5.133-5.191-.305-1.012-.349-1.475-.349-3.209 0-2.4.247-3.745.974-5.22.844-1.706 2.545-3.079 4.479-3.6.902-.231 2.967-.274 3.883-.058zM161.932 158.749c-2.312.506-4.028 1.735-4.915 3.528-.422.853-.465 1.055-.465 2.313 0 1.215.043 1.475.407 2.198.989 2.01 2.559 2.906 7.154 4.077 3.621.925 4.464 1.229 5.221 1.851 1.541 1.257 1.41 3.672-.248 4.886-2.239 1.634-6.761 1.417-9.001-.433-.611-.506-1.381-1.938-1.541-2.892-.087-.52-.16-.651-.393-.622-.16.015-.8.073-1.425.116l-1.134.101.087.665c.451 3.282 2.487 5.523 5.846 6.405 1.556.419 4.915.463 6.282.087 2.923-.795 4.857-2.675 5.395-5.234.334-1.605-.131-3.426-1.207-4.641-1.294-1.46-2.72-2.082-7.416-3.238-4.218-1.027-5.192-1.678-5.192-3.47 0-1.388.945-2.53 2.472-3.008 1.12-.332 3.854-.332 4.959 0 1.44.449 2.617 1.75 2.836 3.138.058.332.159.636.232.679.073.044.727.044 1.44-.014l1.294-.101v-.535c-.015-.767-.625-2.357-1.221-3.181-.917-1.229-2.225-2.053-4.058-2.573-1.148-.319-4.188-.376-5.409-.102zM62.497 158.894c-.059.058-.102 5.046-.102 11.074v10.959h3.054V170.518H76.79V180.927h3.054l-.03-11.031-.043-11.017h-2.908l-.044 4.511-.029 4.525H65.45l-.03-4.525-.043-4.511-1.382-.043c-.77-.015-1.44 0-1.497.058zM125.854 159.009c-.043.116-.058 3.673-.029 7.923.058 7.345.073 7.764.378 8.82.815 2.949 2.341 4.467 5.264 5.262 1.324.362 4.785.362 6.108 0 2.108-.578 3.868-1.923 4.653-3.571.916-1.937.945-2.284.945-10.829v-7.735l-1.41-.043-1.425-.043v6.332c0 9.369-.189 10.8-1.6 12.203-1.018 1.012-2.167 1.33-4.566 1.272-1.716-.058-1.832-.087-2.792-.564-1.149-.593-1.818-1.359-2.167-2.501-.378-1.229-.509-3.73-.509-10.41v-6.318h-1.381c-1.062 0-1.411.043-1.469.202zM185.853 169.867v11.06H202.43v-2.602h-13.669v-7.518h12.215v-2.602h-12.215v-6.651h13.088v-2.747h-15.996v11.06z" fill="#fff"/>
</svg>