<svg id="visual" viewBox="0 0 900 600" width="900" height="600" xmlns="http://www.w3.org/2000/svg" xmlns:xlink="http://www.w3.org/1999/xlink" version="1.1"><rect x="0" y="0" width="900" height="600" fill="#fafafa"></rect><path d="M626 600L613.7 588.8C601.3 577.7 576.7 555.3 534.2 533.2C491.7 511 431.3 489 409.8 466.8C388.3 444.7 405.7 422.3 394.8 400C384 377.7 345 355.3 342 333.2C339 311 372 289 390 266.8C408 244.7 411 222.3 390.3 200C369.7 177.7 325.3 155.3 359.5 133.2C393.7 111 506.3 89 545.3 66.8C584.3 44.7 549.7 22.3 532.3 11.2L515 0" fill="none" stroke-linecap="round" stroke-linejoin="miter" stroke="#1e1e1e" stroke-width="21"></path></svg>