<svg width="28" height="41" viewBox="0 0 28 41" fill="none" xmlns="http://www.w3.org/2000/svg">
<path d="M17.1196 7.56686C19.1661 7.56686 20.8405 5.89244 20.8405 3.84593C20.8405 1.79942 19.1661 0.125 17.1196 0.125C15.0731 0.125 13.3987 1.79942 13.3987 3.84593C13.3987 5.89244 15.0731 7.56686 17.1196 7.56686ZM25.9568 14.0785C25.194 14.0785 24.5615 14.711 24.5615 15.4738V17.3901C22.2731 16.7017 20.4312 15.2134 19.3522 13.3343L17.4917 10.3576C16.7289 9.14826 15.4266 8.49709 14.0684 8.49709C12.6173 8.49709 11.1103 9.42733 10.7568 11.1762L5.49169 37.818C5.24983 39.0087 6.16146 40.125 7.38937 40.125C8.301 40.125 9.08239 39.4924 9.28704 38.618L12.2824 25.2413L16.1894 28.9622V38.2645C16.1894 39.2878 17.0266 40.125 18.0498 40.125C19.0731 40.125 19.9103 39.2878 19.9103 38.2645V27.7715C19.9103 26.7483 19.501 25.7808 18.7568 25.0738L16.0033 22.4506L17.1196 16.8692C18.9801 19.0087 21.6033 20.6087 24.5615 21.2227V38.7297C24.5615 39.4924 25.194 40.125 25.9568 40.125C26.7196 40.125 27.3522 39.4924 27.3522 38.7297V15.4738C27.3522 14.711 26.7196 14.0785 25.9568 14.0785ZM5.82658 21.7622L1.88239 20.9994C1.39902 20.9053 0.97274 20.6232 0.697169 20.2151C0.421598 19.807 0.319259 19.3062 0.412625 18.8227L1.82658 11.511C2.01567 10.5448 2.58003 9.69285 3.39603 9.14187C4.21203 8.5909 5.21314 8.3858 6.18007 8.57151L8.33821 8.99942L5.82658 21.7622V21.7622Z" fill="white"/>
</svg>
