<svg width="57" height="36" viewBox="0 0 57 36" fill="none" xmlns="http://www.w3.org/2000/svg">
<path d="M11.8979 0.024696C11.5251 0.053207 11.0433 0.121633 10.6906 0.195762C10.5415 0.229975 10.2834 0.267039 10.12 0.281295C8.97005 0.386785 7.39573 1.13662 6.07663 2.21149C4.65716 3.36903 3.06277 5.27641 2.37168 6.64209C1.85264 7.67133 1.59743 8.72909 1.37088 10.8132C1.1042 13.2823 0.897729 14.1832 0.364353 15.2438L0.172224 15.623L0.321339 15.6059C0.401632 15.5974 0.533542 15.5803 0.616703 15.5717L0.762951 15.5518L0.665452 15.8141C0.610968 15.9595 0.519204 16.2389 0.46472 16.4384C0.298398 17.0343 0.166488 17.4449 0.0775924 17.6388C0.0317106 17.7385 -0.00270067 17.8241 0.000166938 17.8269C0.00590216 17.8326 0.126342 17.8184 0.266855 17.7956C0.65685 17.7357 0.633909 17.73 0.610968 17.9039C0.599497 17.9866 0.524939 18.286 0.447514 18.5682C0.361486 18.8847 0.301266 19.1726 0.289795 19.3152L0.27259 19.5518H0.499131C0.699864 19.5518 0.8117 19.5319 1.10706 19.4492L1.17015 19.4321V20.0137C1.17015 20.8633 1.23324 21.5676 1.38809 22.4029C1.49419 22.976 1.47985 22.9532 1.6261 22.7622C1.69492 22.6738 1.76088 22.6082 1.77235 22.6168C1.78382 22.6225 1.80103 22.6966 1.8125 22.7793C1.88419 23.3181 2.23403 24.8748 2.45771 25.6418C2.68425 26.4201 3.18321 27.7915 3.2377 27.7915C3.28358 27.7915 3.79975 26.3374 4.02342 25.5819L4.12379 25.2398L4.10372 25.5791L4.08651 25.9212L4.26717 25.7786C4.50805 25.5905 4.78621 25.2911 4.95826 25.0288C5.03569 24.9119 5.09878 24.8292 5.09878 24.8463C5.09878 24.9404 4.93246 25.4194 4.79768 25.7216L4.64283 26.0666L5.0787 25.6247C5.31671 25.3795 5.59201 25.0773 5.68377 24.9461C5.7784 24.8178 5.85869 24.718 5.86443 24.7237C5.87016 24.7266 5.84722 24.8064 5.81568 24.9005C5.66656 25.3225 5.24216 27.093 5.24216 27.2726C5.24216 27.304 5.26797 27.284 5.30524 27.2213C5.982 26.1293 6.83942 25.0459 7.5936 24.3331L7.85168 24.0879V23.5377L7.84881 22.9874L7.77139 23.0758C7.72837 23.1271 7.57639 23.2982 7.43588 23.4607C7.13765 23.8 6.6989 24.3787 6.37486 24.8549C6.25156 25.0345 6.13972 25.1942 6.12538 25.2113C6.09384 25.2455 6.27736 24.7237 6.68743 23.6204C6.94838 22.9161 7.12331 22.3887 7.2036 22.0494C7.22367 21.9724 7.22081 21.9696 7.17779 22.0038C7.15198 22.0266 6.94552 22.3203 6.72184 22.6567C5.82141 24.011 5.70097 24.1934 5.55759 24.3844C5.45723 24.5184 5.41421 24.5612 5.42282 24.5127C5.46583 24.3103 5.4773 24.0651 5.45723 23.6403C5.44576 23.3809 5.42568 23.1784 5.41421 23.1927C5.40274 23.2041 5.32532 23.3894 5.24216 23.6004C5.05289 24.0851 4.84643 24.4842 4.68011 24.6924C4.60842 24.7807 4.53959 24.8549 4.53099 24.8549C4.51952 24.8549 4.51092 24.6924 4.50805 24.4899C4.50518 24.2077 4.48511 24.0224 4.41342 23.6432C4.3618 23.3752 4.31592 23.1556 4.31018 23.1499C4.30445 23.1442 4.28151 23.2355 4.2557 23.3495C4.12092 23.9539 3.83416 24.8178 3.4413 25.81L3.27211 26.232L3.15454 25.9126C2.82189 25.0288 2.66131 24.279 2.38889 22.3744C2.3172 21.8641 2.25124 21.4307 2.24264 21.4079C2.23403 21.3794 2.17955 21.4165 2.06198 21.5305L1.89279 21.6959L1.86125 21.5105C1.72647 20.7464 1.67485 19.8826 1.70926 19.0814C1.7236 18.782 1.7322 18.5369 1.7322 18.534C1.72934 18.5311 1.6175 18.5739 1.48559 18.6309C1.35081 18.688 1.17875 18.7421 1.10133 18.7478L0.960816 18.7621L0.978022 18.5853C0.989492 18.4855 1.06692 18.1976 1.15295 17.9438C1.29346 17.5276 1.4053 17.0115 1.36515 16.9687C1.35655 16.963 1.24758 16.9916 1.1214 17.0372L0.891994 17.1199L0.975154 16.9089C1.02104 16.792 1.10993 16.5012 1.17302 16.2645C1.34221 15.6145 1.4225 15.3807 1.58882 15.05C1.67198 14.8846 1.73507 14.7449 1.72934 14.7392C1.71787 14.7278 1.4311 14.7934 1.17875 14.8646C1.11853 14.8817 1.12714 14.8561 1.26765 14.5596C1.72647 13.6073 1.88705 12.7833 2.0161 10.7847C2.17381 8.33564 2.47205 7.32635 3.49865 5.80386C4.41629 4.43534 5.72678 3.09818 7.05449 2.17157C8.08683 1.45024 9.1163 0.994068 10.0712 0.834407C10.2949 0.797343 10.6505 0.728916 10.8627 0.680448C11.3387 0.574957 11.9982 0.466616 12.4485 0.420998C12.8901 0.375381 13.9138 0.398189 14.2465 0.460913C14.972 0.594915 15.6057 0.857216 16.1477 1.23926C16.3742 1.39892 17.028 2.0005 17.028 2.04897C17.028 2.06038 16.8474 1.98625 16.6294 1.87791C15.8982 1.52152 15.4136 1.41318 14.8171 1.47305C13.65 1.58424 13.1969 2.09744 12.7295 3.84231L12.6721 4.05614L12.7324 3.98487C12.7639 3.94495 12.913 3.66839 13.0593 3.37188C13.3833 2.71043 13.5066 2.51655 13.7704 2.25995C14.149 1.88931 14.4787 1.71825 14.7741 1.7382C14.9089 1.74961 14.9548 1.76386 15.0006 1.82089C15.0781 1.91782 15.0494 2.09174 14.906 2.34834C14.8429 2.46238 14.754 2.69047 14.7053 2.85298C14.6565 3.01835 14.5963 3.20367 14.5734 3.26354C14.4902 3.45741 14.2895 3.73397 13.9912 4.06755C13.5697 4.53513 13.3862 4.93143 13.3862 5.36765C13.3862 5.67842 13.4894 5.85233 13.7418 5.96353L13.8794 6.02625L13.6701 6.08612C13.2256 6.21442 12.7008 6.29425 12.3165 6.29425C11.8004 6.29425 11.4964 6.40259 10.2175 7.04694C9.27115 7.52593 8.99586 7.63712 8.74351 7.64282C8.66321 7.64567 8.59726 7.66278 8.59726 7.67988C8.59726 7.77682 8.77505 7.80533 9.02167 7.74546C9.24247 7.69129 9.69269 7.50312 10.2891 7.22086C11.1609 6.80175 11.5251 6.70481 12.784 6.5537C13.4464 6.47102 13.7217 6.42825 14.4042 6.2914C14.5848 6.25434 14.8716 6.22868 15.1813 6.21727C15.729 6.20017 15.9641 6.23153 16.2538 6.37123L16.4115 6.44536L16.3111 6.46817C16.2566 6.47957 16.076 6.51664 15.9097 6.548C15.3189 6.66489 14.8716 6.81885 14.3325 7.08971C14.0371 7.23796 13.6127 7.42043 13.3001 7.53448C12.6607 7.76542 12.5517 7.81389 11.9868 8.11325C11.7459 8.24155 11.5452 8.34704 11.5366 8.34704C11.4993 8.34704 11.5366 8.24155 11.6971 7.91938C11.8635 7.5858 11.8921 7.54588 12.1531 7.29214C12.4685 6.98707 12.5115 6.92434 12.4599 6.85307C12.3596 6.71907 11.8835 6.74187 11.3846 6.90724C11.1093 7.00132 10.0483 7.4575 9.72997 7.62286C8.86968 8.06763 8.61733 8.17597 8.4252 8.17597C8.34491 8.17597 8.25601 8.10185 8.25028 8.03057C8.24741 7.94219 8.19866 8.1104 8.19866 8.22159C8.19579 8.30427 8.213 8.35274 8.25315 8.38981C8.46248 8.57798 9.22813 8.34989 10.5128 7.72265C11.2154 7.37767 11.3588 7.3349 11.4419 7.43184C11.505 7.51167 11.4935 7.57724 11.3444 7.99065C11.2813 8.16172 11.2297 8.3613 11.2297 8.42972C11.2269 8.52096 11.201 8.59223 11.1294 8.69487C11.0175 8.86309 11.0089 8.93722 11.1036 8.97713C11.2355 9.03701 11.5423 8.92866 12.5517 8.46108C12.7954 8.34989 13.1223 8.20734 13.2801 8.14461C14.645 7.6029 15.3046 7.78252 16.3054 8.97143C16.9105 9.68705 17.2488 10.2259 17.8912 11.4889C18.3099 12.3158 18.4876 12.6009 18.7859 12.9459C18.9837 13.1711 20.1136 14.1946 20.3774 14.3885C20.6125 14.5596 20.6097 14.5738 20.3401 14.6023C20.1308 14.628 19.9817 14.6708 19.9817 14.7107C19.9817 14.7249 20.0935 14.8561 20.234 14.9986C20.3717 15.144 20.5925 15.3807 20.7244 15.5232L20.9653 15.7884H21.6994H22.4335L23.1074 15.1269C23.4773 14.762 24.2659 13.9865 24.8566 13.4077L25.932 12.35L26.6947 12.1418L27.4547 11.9309L30.1215 9.30216C31.5869 7.8538 32.7884 6.67345 32.7913 6.6763C32.797 6.67915 32.4758 7.5858 32.083 8.68917C31.6901 9.79255 31.3747 10.702 31.3833 10.7106C31.389 10.7192 31.7704 10.3542 32.2264 9.90089C32.6852 9.44471 33.058 9.09118 33.058 9.10828C33.058 9.12824 33.1096 9.96076 33.1727 10.9615C33.2358 11.9622 33.2902 12.8432 33.2931 12.9202L33.3017 13.0599L32.3812 13.3193L31.4607 13.5788L30.3309 14.6822L29.2039 15.7884H32.4271L35.6532 15.7855L39.0369 12.4412C40.898 10.5994 42.4265 9.09973 42.4322 9.10543C42.4494 9.11969 42.696 13.0029 42.6817 13.0371C42.6759 13.0542 42.2573 13.1825 41.7497 13.3222L40.8292 13.5788L39.7194 14.6822L38.6068 15.7884H45.3887H52.1706L50.7425 14.3686L49.3173 12.9487L48.5889 12.752L47.8606 12.5524L45.7041 10.4283L43.5506 8.30427L42.8709 8.11325C42.4981 8.00491 42.177 7.92223 42.1569 7.92508C42.1397 7.93078 41.592 8.45823 40.9439 9.09973L39.7624 10.2658L38.8419 9.35063L37.9186 8.43542L37.2562 8.22729L36.5909 8.01916L35.2718 6.71907L33.9498 5.41897L33.1383 5.53586L32.3267 5.64991L29.6369 8.31853C27.1077 10.8246 26.9385 10.9872 26.798 11.0328C26.7148 11.0584 26.3621 11.1582 26.0123 11.2552L25.3728 11.4319L23.6952 13.0856C22.0636 14.6936 22.0148 14.7392 21.9517 14.6964C21.8399 14.6223 21.0628 13.844 20.8075 13.5503C19.715 12.2816 18.8776 10.7448 18.4016 9.12824L18.3099 8.80892L18.4446 8.21589C18.5192 7.88801 18.6368 7.37482 18.7027 7.0783C18.8604 6.38834 18.9207 5.98348 18.9407 5.46744C18.9809 4.41538 18.7314 3.46882 18.221 2.73324C18.026 2.45098 17.0481 1.43314 16.7585 1.20505C16.4602 0.976962 16.1964 0.8173 15.838 0.646235C14.7942 0.155846 13.2915 -0.0807945 11.8979 0.024696ZM16.2394 2.08889C16.3828 2.14591 16.6524 2.24855 16.8416 2.31412C17.2775 2.46808 17.2832 2.47093 17.4209 2.65055C17.9485 3.34052 18.2353 4.34125 18.1923 5.35339C18.1837 5.58148 18.1636 5.84948 18.1464 5.94927C18.1292 6.04906 18.1206 6.13459 18.1292 6.14314C18.1493 6.16595 18.2812 5.85518 18.3357 5.65276C18.4188 5.34484 18.4131 4.38402 18.3242 3.90218C18.2898 3.70831 18.2668 3.54295 18.2726 3.53724C18.2898 3.51729 18.4618 3.97631 18.5192 4.1987C18.7457 5.08254 18.631 6.23438 18.155 7.77112C18.0804 8.01346 18.0116 8.19023 18.003 8.17027C17.9915 8.15031 17.96 7.98495 17.9342 7.80533C17.8195 7.02983 17.6761 6.65064 17.3865 6.36268C17.0854 6.06046 16.8158 5.97493 16.0387 5.92646C15.772 5.90935 15.4021 5.86944 15.2214 5.83523C15.0408 5.80101 14.8573 5.76965 14.8142 5.7668C14.6823 5.75254 14.3755 5.64135 14.2407 5.55582C14.0715 5.44748 13.9884 5.28211 13.9884 5.05118C13.9884 4.69479 14.1145 4.39257 14.4816 3.87367C14.7454 3.50303 14.8917 3.24073 15.0207 2.91571C15.2903 2.24 15.5569 1.94063 15.8666 1.96914C15.9297 1.97484 16.0989 2.02902 16.2394 2.08889Z" fill="white"/>
<path d="M14.1518 2.47948C14.1289 2.51654 14.0744 2.60778 14.0314 2.68761C13.9855 2.76459 13.8794 2.9328 13.7962 3.05825C13.7131 3.18085 13.6184 3.36617 13.5869 3.46596C13.5267 3.65983 13.5066 4.05328 13.5582 4.08464C13.6041 4.11316 13.8106 3.90503 13.9195 3.71685C13.9769 3.62277 14.0744 3.46881 14.1375 3.37757C14.2923 3.15519 14.3698 2.92995 14.3726 2.69331C14.3755 2.5308 14.3669 2.49088 14.321 2.45667C14.2407 2.39965 14.1977 2.40535 14.1518 2.47948Z" fill="white"/>
<path d="M11.6226 2.90431C11.2842 2.97273 10.8111 2.99269 9.57225 2.99839C8.39653 3.00124 8.213 3.00695 8.0094 3.05541C7.55059 3.15805 7.16059 3.36333 6.87957 3.64844C6.73332 3.79955 6.52685 4.07326 6.54692 4.09321C6.54979 4.09892 6.67883 4.00483 6.83082 3.88793C6.9828 3.77104 7.18927 3.62848 7.28963 3.57146C7.4961 3.45742 7.85455 3.35763 8.04955 3.35763L8.18146 3.36048L8.06676 3.42035C7.88036 3.51729 7.74845 3.63419 7.63948 3.79955C7.23802 4.39543 7.37853 5.20799 7.92911 5.50165C8.13845 5.61285 8.23308 5.62995 8.07249 5.52731C7.72838 5.30493 7.62228 4.83735 7.82588 4.42109C7.90617 4.25287 8.01227 4.18445 8.1872 4.18445C8.38506 4.18445 8.43955 4.23007 8.41374 4.38117C8.3908 4.52943 8.44241 4.66058 8.57146 4.76607C8.65462 4.83735 8.68329 4.8459 8.82381 4.8345C8.95858 4.82309 8.99299 4.80599 9.07615 4.7176C9.14498 4.64062 9.17079 4.58645 9.17079 4.51518C9.17079 4.461 9.19659 4.38688 9.23387 4.34126C9.29123 4.26998 9.30556 4.26428 9.46328 4.27568C9.59806 4.28424 9.64681 4.30419 9.7185 4.37262C9.8074 4.4553 9.8074 4.4553 9.79306 4.7005C9.77012 5.11676 9.57799 5.43038 9.24821 5.58434L9.12777 5.64136L9.26255 5.62995C9.55505 5.60429 9.90776 5.33059 10.0483 5.02552C10.1142 4.88297 10.1257 4.81454 10.1458 4.36122C10.1744 3.75963 10.2003 3.6627 10.3694 3.54295C10.4899 3.46027 10.5042 3.45742 10.8139 3.45742C11.0777 3.45742 11.158 3.46882 11.2641 3.51729C11.4735 3.61423 11.5767 3.71972 11.6828 3.95351C11.8119 4.23292 11.9065 4.35551 11.9954 4.35551C12.1072 4.35551 12.1359 4.21011 12.1158 3.75963C12.0986 3.35478 12.0183 2.94137 11.9495 2.8986C11.9008 2.87009 11.7803 2.87009 11.6226 2.90431Z" fill="white"/>
<path d="M11.9667 5.47313C11.5652 5.81526 10.9086 6.17735 10.1171 6.49382C9.3027 6.82169 8.88689 7.03838 8.69763 7.2351L8.61447 7.32349L8.82667 7.2237C8.94425 7.17238 9.33998 7.02127 9.7013 6.89297C11.419 6.28284 11.8233 6.0576 12.0499 5.59287C12.1072 5.47313 12.1502 5.36478 12.1474 5.35053C12.1416 5.33627 12.0613 5.3933 11.9667 5.47313Z" fill="white"/>
<path d="M51.6401 17.8897C50.6106 17.9524 49.6041 18.2889 48.956 18.785C47.8233 19.6517 47.4276 21.2626 48.0412 22.5028C48.3796 23.1842 49.0306 23.7373 49.9052 24.0823C50.3497 24.2562 50.8658 24.4045 52.096 24.7124C52.7212 24.8692 53.4065 25.0488 53.6187 25.1144C54.0632 25.2455 54.5192 25.4508 54.7858 25.6418C55.3077 26.0125 55.5515 26.6625 55.411 27.3183C55.1787 28.416 53.9313 29.0746 52.2165 29.009C51.511 28.9833 50.9977 28.8664 50.4701 28.6184C49.7388 28.2734 49.3144 27.8486 49.0592 27.2099C48.9675 26.9819 48.8298 26.4402 48.8298 26.3033C48.8298 26.2605 48.8212 26.2206 48.8097 26.2149C48.7954 26.2092 48.4656 26.232 48.0699 26.2691C47.677 26.3061 47.3358 26.3347 47.3157 26.3375C47.2354 26.3404 47.3616 27.17 47.5078 27.6005C47.7516 28.3162 48.2477 29.0147 48.8155 29.4481C49.4435 29.9242 50.2005 30.2179 51.2099 30.3718C51.6114 30.4345 52.8244 30.463 53.2058 30.4174C54.3729 30.2806 55.3221 29.8643 56.0017 29.1915C56.5265 28.6669 56.8735 27.9968 56.9738 27.3126C57.0254 26.9705 56.9968 26.2976 56.9222 26.0182C56.6727 25.0916 56.0877 24.4273 55.0955 23.9369C54.5364 23.6575 53.8539 23.4551 52.0846 23.0445C50.6565 22.7109 49.9224 22.4144 49.6356 22.058C49.3976 21.7672 49.303 21.4593 49.323 21.0516C49.3403 20.7323 49.4119 20.5213 49.5955 20.2533C49.9281 19.7686 50.473 19.4863 51.3017 19.3637C51.749 19.2982 52.7728 19.321 53.1312 19.4037C53.9858 19.6032 54.479 19.9596 54.8117 20.6125C54.9264 20.8406 55.0411 21.2169 55.0697 21.4593C55.0927 21.6674 54.9894 21.6532 55.9272 21.5762C56.3057 21.5448 56.6268 21.5192 56.6412 21.5192C56.6527 21.5192 56.6555 21.4251 56.6441 21.311C56.5494 20.3131 56.0791 19.4122 55.3565 18.842C54.4933 18.1606 53.0968 17.8013 51.6401 17.8897Z" fill="white"/>
<path d="M12.1244 24.1564V30.2463L14.9576 30.2349C16.9793 30.2264 17.8539 30.215 18.0174 30.1893C19.1587 30.0183 19.887 29.7103 20.4032 29.18C20.6068 28.9719 20.8563 28.6184 20.9997 28.3333C21.4413 27.458 21.4929 26.3261 21.1258 25.4708C20.9308 25.0174 20.5179 24.5213 20.1021 24.2476C19.8784 24.0994 19.4397 23.8827 19.2447 23.8257C19.1759 23.8057 19.1214 23.7829 19.1214 23.7715C19.1214 23.7601 19.1845 23.7173 19.2648 23.6746C19.3422 23.6318 19.5085 23.5235 19.629 23.4322C21.0398 22.3859 21.1631 20.3844 19.8956 19.0957C19.2705 18.4599 18.5106 18.1777 17.2087 18.0978C16.9449 18.0836 15.6917 18.0693 14.4271 18.0693H12.1244V24.1564ZM17.6159 19.5889C18.1235 19.6745 18.3815 19.7857 18.6396 20.0309C18.8461 20.2247 18.978 20.4357 19.0812 20.7351C19.1558 20.9432 19.1615 20.9974 19.1615 21.3766C19.1615 21.7558 19.1558 21.8099 19.0841 22.0152C18.9407 22.4229 18.7027 22.6995 18.3271 22.8934C18.0919 23.0188 17.9027 23.0758 17.5442 23.1357C17.3234 23.1728 16.942 23.1842 15.5168 23.1927L13.759 23.207V21.3623V19.5177L15.5455 19.5319C17.0366 19.5405 17.375 19.5519 17.6159 19.5889ZM17.7392 24.6924C18.1407 24.7551 18.3529 24.815 18.5909 24.9233C18.8719 25.0545 19.1157 25.2427 19.2791 25.4565C19.5372 25.7958 19.6548 26.1294 19.6863 26.5941C19.7236 27.2299 19.5229 27.7915 19.1042 28.2078C18.7887 28.5214 18.2496 28.7324 17.6188 28.7894C17.461 28.8037 16.5262 28.8151 15.5455 28.8179H13.759V26.7195V24.6211L15.6028 24.6354C17.1198 24.6439 17.4955 24.6553 17.7392 24.6924Z" fill="white"/>
<path d="M22.5826 18.0892C22.5711 18.0977 22.5625 20.8376 22.5625 24.1763V30.2434H23.3798H24.1971L24.1913 24.162L24.1827 18.0835L23.3913 18.0749C22.9582 18.0721 22.5941 18.0778 22.5826 18.0892Z" fill="white"/>
<path d="M25.7742 24.1563V30.2434H26.5915H27.4088V27.5463V24.8491L28.7508 24.8605C30.0556 24.8719 30.0957 24.8748 30.2907 24.9375C30.7696 25.0943 31.1596 25.3652 31.5267 25.7986C32.0084 26.3659 32.4328 26.9875 33.7032 28.9804L34.5061 30.2434H35.5184C36.3213 30.2434 36.5278 30.2349 36.5106 30.2063C36.4045 30.0296 34.4086 26.9105 34.2595 26.6938C33.8293 26.0609 33.2329 25.3994 32.8572 25.1342C32.754 25.063 32.5504 24.9404 32.4013 24.8605C32.1747 24.7408 32.1403 24.7151 32.2005 24.7037C32.2378 24.6952 32.4127 24.661 32.5848 24.6268C34.2738 24.2989 35.289 23.3523 35.5155 21.904C35.5671 21.5704 35.5499 20.9973 35.4811 20.678C35.3377 20.0194 35.0337 19.4406 34.6007 19.0158C33.9899 18.4085 33.2702 18.1747 31.7819 18.0977C31.4836 18.0835 30.0068 18.0692 28.5071 18.0692H25.7742V24.1563ZM32.2264 19.5147C32.754 19.643 33.101 19.8255 33.3648 20.1021C33.6974 20.4556 33.8351 20.792 33.8552 21.2967C33.8724 21.7129 33.8179 21.9781 33.6458 22.306C33.273 23.0273 32.668 23.3381 31.4664 23.4264C31.2456 23.4435 30.242 23.4578 29.2383 23.4578H27.4088V21.4478V19.4349L29.6971 19.4463C31.8994 19.4549 31.9912 19.4577 32.2264 19.5147Z" fill="white"/>
<path d="M36.7859 24.1535V30.2463L39.4757 30.2349C42.0594 30.2264 42.177 30.2235 42.5412 30.1637C43.9864 29.9327 44.9012 29.4252 45.6439 28.4501C46.5415 27.2726 46.9945 25.4822 46.8827 23.5691C46.7651 21.6075 46.1773 20.2105 45.0446 19.1983C44.3449 18.574 43.4903 18.2404 42.2917 18.1235C42.0909 18.1035 40.9525 18.0864 39.3753 18.0779L36.7859 18.0636V24.1535ZM42.0737 19.5661C43.0086 19.6631 43.5792 19.9225 44.0897 20.4756C44.6804 21.1171 44.993 21.8299 45.1507 22.9019C45.2224 23.3895 45.2224 24.7494 45.1507 25.2541C44.9758 26.4914 44.6202 27.324 44.0122 27.9341C43.6911 28.2563 43.4387 28.4074 42.9684 28.567C42.3289 28.7837 41.9103 28.8179 39.9345 28.8179H38.4204V24.1707V19.5234H40.0406C41.2851 19.5234 41.7583 19.5348 42.0737 19.5661Z" fill="white"/>
<path d="M19.6261 31.2014C19.2103 31.2927 18.8862 31.4751 18.6052 31.7716C18.1923 32.2079 18.0231 32.6926 18.0231 33.4367C18.0231 33.8957 18.069 34.1238 18.2296 34.4745C18.6167 35.327 19.52 35.7888 20.4692 35.6235C21.2807 35.4838 21.8227 35.0133 22.0836 34.2264C22.1582 33.9955 22.1696 33.9128 22.184 33.5393C22.1983 33.0632 22.1696 32.8351 22.0463 32.4901C21.9374 32.1822 21.8055 31.9712 21.5732 31.7403C21.1861 31.3554 20.776 31.1872 20.1824 31.1672C19.9272 31.1587 19.7666 31.1701 19.6261 31.2014ZM20.4692 31.7004C20.69 31.7517 20.9538 31.8942 21.1115 32.0511C21.295 32.2364 21.3897 32.3932 21.49 32.684C21.556 32.8779 21.5703 32.9691 21.5818 33.3226C21.5933 33.7959 21.5531 34.0497 21.4212 34.3319C21.2463 34.7026 20.9366 34.9763 20.5638 35.0903C20.343 35.1587 19.93 35.1673 19.7092 35.1074C19.2189 34.9791 18.8547 34.6085 18.697 34.0839C18.6368 33.8843 18.6282 33.7931 18.6282 33.4509C18.6282 32.9777 18.6769 32.7125 18.8203 32.4217C18.9866 32.0853 19.3221 31.8144 19.7035 31.7118C19.8813 31.6662 20.2885 31.6576 20.4692 31.7004Z" fill="white"/>
<path d="M31.7532 31.2014C31.2973 31.3012 30.9589 31.5436 30.784 31.8971C30.7008 32.0653 30.6922 32.1052 30.6922 32.3533C30.6922 32.5928 30.7008 32.6441 30.7725 32.7867C30.9675 33.183 31.2772 33.3597 32.1833 33.5907C32.8974 33.7731 33.0637 33.833 33.2128 33.9556C33.5168 34.2037 33.491 34.6798 33.1641 34.9193C32.7225 35.2415 31.8306 35.1987 31.389 34.8337C31.2686 34.734 31.1166 34.4517 31.0851 34.2635C31.0678 34.1609 31.0535 34.1352 31.0076 34.1409C30.9761 34.1438 30.8499 34.1552 30.7266 34.1637L30.5029 34.1837L30.5201 34.3148C30.609 34.962 31.0105 35.404 31.6729 35.5779C31.9797 35.6606 32.6422 35.6691 32.9117 35.595C33.4881 35.4382 33.8695 35.0675 33.9756 34.5629C34.0416 34.2464 33.9498 33.8872 33.7376 33.6477C33.4824 33.3597 33.2014 33.2371 32.2751 33.009C31.4435 32.8066 31.2514 32.6783 31.2514 32.3248C31.2514 32.0511 31.4378 31.8258 31.7389 31.7318C31.9597 31.6662 32.4988 31.6662 32.7167 31.7318C33.0006 31.8201 33.2329 32.0767 33.2759 32.3504C33.2874 32.416 33.3075 32.4759 33.3218 32.4844C33.3361 32.493 33.4652 32.493 33.6057 32.4816L33.8609 32.4616V32.3561C33.858 32.205 33.7376 31.8914 33.62 31.7289C33.4394 31.4866 33.1813 31.324 32.82 31.2214C32.5934 31.1587 31.9941 31.1473 31.7532 31.2014Z" fill="white"/>
<path d="M12.1445 31.2299C12.133 31.2413 12.1244 32.2249 12.1244 33.4138V35.575H12.4255H12.7266V34.5486V33.5222H13.845H14.9634V34.5486V35.575H15.2645H15.5656L15.5598 33.3996L15.5512 31.227H15.2645H14.9777L14.9691 32.1166L14.9634 33.009H13.845H12.7266L12.7209 32.1166L12.7123 31.227L12.4399 31.2185C12.2879 31.2156 12.156 31.2185 12.1445 31.2299Z" fill="white"/>
<path d="M24.6387 31.2527C24.6301 31.2755 24.6272 31.9769 24.6329 32.8151C24.6444 34.2634 24.6473 34.3461 24.7075 34.5543C24.8681 35.1359 25.1692 35.4352 25.7456 35.592C26.0065 35.6633 26.689 35.6633 26.95 35.592C27.3658 35.478 27.7127 35.2129 27.8676 34.8878C28.0483 34.5058 28.054 34.4374 28.054 32.7524V31.227L27.7758 31.2185L27.4948 31.2099V32.4587C27.4948 34.3062 27.4575 34.5885 27.1794 34.865C26.9786 35.0646 26.7521 35.1273 26.2789 35.1159C25.9406 35.1045 25.9176 35.0988 25.7284 35.0047C25.5018 34.8878 25.3699 34.7367 25.3011 34.5115C25.2265 34.2691 25.2007 33.7759 25.2007 32.4587V31.2128H24.9283C24.719 31.2128 24.6501 31.2213 24.6387 31.2527Z" fill="white"/>
<path d="M36.4704 33.3939V35.575H38.105H39.7395V35.3184V35.0618H38.3917H37.044V34.3205V33.5792H38.2483H39.4527V33.3226V33.066H38.2483H37.044V32.4102V31.7545H38.3344H39.6248V31.4836V31.2128H38.0476H36.4704V33.3939Z" fill="white"/>
</svg>
